<mxfile modified="2023-08-24T02:05:20.594Z" host="Electron" agent="Mozilla/5.0 (Windows NT 10.0; Win64; x64) AppleWebKit/537.36 (KHTML, like Gecko) draw.io/21.6.8 Chrome/114.0.5735.289 Electron/25.5.0 Safari/537.36" etag="M6XzMzHD7_LLTEGjuugv" version="21.6.8" type="device">
  <diagram id="l8hXMBHkgcEJcSW0mbfh" name="Page-1">
    <mxGraphModel dx="1434" dy="17" grid="1" gridSize="10" guides="1" tooltips="1" connect="1" arrows="1" fold="1" page="1" pageScale="1" pageWidth="1169" pageHeight="827" math="0" shadow="0">
      <root>
        <mxCell id="0" />
        <mxCell id="1" parent="0" />
        <mxCell id="hd7GLlxzBQkCQPeTxtlU-31" style="edgeStyle=orthogonalEdgeStyle;rounded=0;orthogonalLoop=1;jettySize=auto;html=1;exitX=1;exitY=0.5;exitDx=0;exitDy=0;exitPerimeter=0;entryX=0;entryY=0.5;entryDx=0;entryDy=0;" parent="1" source="hd7GLlxzBQkCQPeTxtlU-1" target="hd7GLlxzBQkCQPeTxtlU-8" edge="1">
          <mxGeometry relative="1" as="geometry" />
        </mxCell>
        <mxCell id="hd7GLlxzBQkCQPeTxtlU-69" style="edgeStyle=orthogonalEdgeStyle;rounded=0;orthogonalLoop=1;jettySize=auto;html=1;entryX=0.5;entryY=1;entryDx=0;entryDy=0;" parent="1" edge="1">
          <mxGeometry relative="1" as="geometry">
            <mxPoint x="295" y="1183" as="sourcePoint" />
            <mxPoint x="577" y="1323" as="targetPoint" />
            <Array as="points">
              <mxPoint x="352" y="1183" />
              <mxPoint x="352" y="1360" />
              <mxPoint x="577" y="1360" />
            </Array>
          </mxGeometry>
        </mxCell>
        <mxCell id="hd7GLlxzBQkCQPeTxtlU-71" style="edgeStyle=orthogonalEdgeStyle;rounded=0;orthogonalLoop=1;jettySize=auto;html=1;" parent="1" source="hd7GLlxzBQkCQPeTxtlU-1" target="hd7GLlxzBQkCQPeTxtlU-12" edge="1">
          <mxGeometry relative="1" as="geometry" />
        </mxCell>
        <mxCell id="hd7GLlxzBQkCQPeTxtlU-1" value="数据存储" style="outlineConnect=0;dashed=0;verticalLabelPosition=bottom;verticalAlign=top;align=center;html=1;shape=mxgraph.aws3.mysql_db_instance;fillColor=#2E73B8;gradientColor=none;" parent="1" vertex="1">
          <mxGeometry x="243" y="1153" width="60" height="60" as="geometry" />
        </mxCell>
        <mxCell id="hd7GLlxzBQkCQPeTxtlU-24" style="edgeStyle=orthogonalEdgeStyle;rounded=0;orthogonalLoop=1;jettySize=auto;html=1;entryX=0.5;entryY=0;entryDx=0;entryDy=0;" parent="1" source="hd7GLlxzBQkCQPeTxtlU-4" target="hd7GLlxzBQkCQPeTxtlU-9" edge="1">
          <mxGeometry relative="1" as="geometry" />
        </mxCell>
        <mxCell id="hd7GLlxzBQkCQPeTxtlU-4" value="对接API接口" style="sketch=0;html=1;dashed=0;whitespace=wrap;fillColor=#2875E2;strokeColor=#ffffff;points=[[0.005,0.63,0],[0.1,0.2,0],[0.9,0.2,0],[0.5,0,0],[0.995,0.63,0],[0.72,0.99,0],[0.5,1,0],[0.28,0.99,0]];verticalLabelPosition=bottom;align=center;verticalAlign=top;shape=mxgraph.kubernetes.icon;prIcon=api" parent="1" vertex="1">
          <mxGeometry x="127" y="1153" width="60" height="60" as="geometry" />
        </mxCell>
        <mxCell id="hd7GLlxzBQkCQPeTxtlU-41" value="" style="edgeStyle=orthogonalEdgeStyle;rounded=0;orthogonalLoop=1;jettySize=auto;html=1;" parent="1" source="hd7GLlxzBQkCQPeTxtlU-8" target="hd7GLlxzBQkCQPeTxtlU-40" edge="1">
          <mxGeometry relative="1" as="geometry" />
        </mxCell>
        <mxCell id="hd7GLlxzBQkCQPeTxtlU-8" value="MaxCompute" style="shape=image;aspect=fixed;image=data:image/svg+xml,PD94bWwgdmVyc2lvbj0iMS4wIiBzdGFuZGFsb25lPSJubyI/PjwhRE9DVFlQRSBzdmcgUFVCTElDICItLy9XM0MvL0RURCBTVkcgMS4xLy9FTiIgImh0dHA6Ly93d3cudzMub3JnL0dyYXBoaWNzL1NWRy8xLjEvRFREL3N2ZzExLmR0ZCI+PHN2ZyB0PSIxNjkyNjA4NTc4NDE1IiBjbGFzcz0iaWNvbiIgdmlld0JveD0iMCAwIDEwMjQgMTAyNCIgdmVyc2lvbj0iMS4xIiB4bWxucz0iaHR0cDovL3d3dy53My5vcmcvMjAwMC9zdmciIHAtaWQ9IjQxNzQiIHhtbG5zOnhsaW5rPSJodHRwOi8vd3d3LnczLm9yZy8xOTk5L3hsaW5rIiB3aWR0aD0iMjAwIiBoZWlnaHQ9IjIwMCI+PHBhdGggZD0iTTkxNC4zMzcxMDkgMzQuMTMzMzMzYzIwLjQxMTczMyAwIDM4LjA5MjggNy4zMDQ1MzMgNTMuMDQzMiAyMS45ODE4NjcgMTUuMDE4NjY3IDE0LjY3NzMzMyAyMi40NTk3MzMgMzIuNDk0OTMzIDIyLjQ1OTczNCA1My41MjEwNjd2ODA0LjcyNzQ2NmMwIDIxLjAyNjEzMy03LjUwOTMzMyAzOC45MTItMjIuNDU5NzM0IDUzLjUyMTA2Ny0xNS4wMTg2NjcgMTQuNjc3MzMzLTMyLjYzMTQ2NyAyMS45ODE4NjctNTMuMDQzMiAyMS45ODE4NjdIMTA4LjY1MzkwOWE3MS42OCA3MS42OCAwIDAgMS01Mi41NjUzMzMtMjEuOTgxODY3QTcyLjg0MDUzMyA3Mi44NDA1MzMgMCAwIDEgMzQuMTA2NzA5IDkxNC4zNjM3MzNWMTA5LjYzNjI2N2MwLTIxLjAyNjEzMyA3LjMwNDUzMy0zOC45MTIgMjEuOTgxODY3LTUzLjUyMTA2N0E3MS42OCA3MS42OCAwIDAgMSAxMDguNjUzOTA5IDM0LjEzMzMzM2g4MDUuNjgzMnogbS01ODAuOTQ5MzMzIDQzMy40MjUwNjdhNzguNjQzMiA3OC42NDMyIDAgMSAwLTQxLjA5NjUzMyAyMy4wNzQxMzNMMzg1LjYxMTc3NiA2NTYuNzI1MzMzYTk4LjMwNCA5OC4zMDQgMCAxIDAgMTE0LjI3ODQtMTQuNzQ1Nkw1NzQuNzc4NzA5IDM1NC42NDUzMzNjNS43MzQ0LTAuMjA0OCAxMS40MDA1MzMtMS4wMjQgMTYuOTMwMTM0LTIuNDU3Nmw5NS43NzgxMzMgMTQ4LjgyMTMzNGE3OC42NDMyIDc4LjY0MzIgMCAxIDAgMzkuNTk0NjY3LTI1LjZMNjMxLjkxNzkwOSAzMjcuMDY1NmE3OC42NDMyIDc4LjY0MzIgMCAxIDAtMTAyLjQ2ODI2NiAxNS4wMTg2NjdsLTc1LjA5MzMzNCAyODcuODgwNTMzYTk4LjM3MjI2NyA5OC4zNzIyNjcgMCAwIDAtMjcuNTExNDY2IDMuNTQ5ODY3TDMzMy4zODc3NzYgNDY3LjYyNjY2N3oiIGZpbGw9IiNGRjZBMDAiIHAtaWQ9IjQxNzUiPjwvcGF0aD48L3N2Zz4=;labelPosition=center;verticalLabelPosition=bottom;align=center;verticalAlign=top;" parent="1" vertex="1">
          <mxGeometry x="478" y="1153" width="60" height="60" as="geometry" />
        </mxCell>
        <mxCell id="hd7GLlxzBQkCQPeTxtlU-25" style="edgeStyle=orthogonalEdgeStyle;rounded=0;orthogonalLoop=1;jettySize=auto;html=1;entryX=0.5;entryY=0.975;entryDx=0;entryDy=0;entryPerimeter=0;" parent="1" source="hd7GLlxzBQkCQPeTxtlU-9" target="hd7GLlxzBQkCQPeTxtlU-1" edge="1">
          <mxGeometry relative="1" as="geometry" />
        </mxCell>
        <mxCell id="hd7GLlxzBQkCQPeTxtlU-9" value="后台服务" style="shape=image;aspect=fixed;image=data:image/svg+xml,PD94bWwgdmVyc2lvbj0iMS4wIiBzdGFuZGFsb25lPSJubyI/PjwhRE9DVFlQRSBzdmcgUFVCTElDICItLy9XM0MvL0RURCBTVkcgMS4xLy9FTiIgImh0dHA6Ly93d3cudzMub3JnL0dyYXBoaWNzL1NWRy8xLjEvRFREL3N2ZzExLmR0ZCI+PHN2ZyB0PSIxNjkyNjA5NTI0NDMzIiBjbGFzcz0iaWNvbiIgdmlld0JveD0iMCAwIDEwMjQgMTAyNCIgdmVyc2lvbj0iMS4xIiB4bWxucz0iaHR0cDovL3d3dy53My5vcmcvMjAwMC9zdmciIHAtaWQ9IjEwMzgyIiB4bWxuczp4bGluaz0iaHR0cDovL3d3dy53My5vcmcvMTk5OS94bGluayIgd2lkdGg9IjIwMCIgaGVpZ2h0PSIyMDAiPjxwYXRoIGQ9Ik05NiAzMjBoNzA0YzE3LjYgMCAzMi0xNC40IDMyLTMyVjk2YzAtMTcuNi0xNC40LTMyLTMyLTMySDk2Yy0xNy42IDAtMzIgMTQuNC0zMiAzMnYxOTJjMCAxNy42IDE0LjQgMzIgMzIgMzJ6IG0zMi0xOTJoNjQwdjEyOEgxMjhWMTI4eiIgcC1pZD0iMTAzODMiPjwvcGF0aD48cGF0aCBkPSJNMjI0IDE5Mm0tMzIgMGEzMiAzMiAwIDEgMCA2NCAwIDMyIDMyIDAgMSAwLTY0IDBaIiBwLWlkPSIxMDM4NCI+PC9wYXRoPjxwYXRoIGQ9Ik0zNTIgMTkybS0zMiAwYTMyIDMyIDAgMSAwIDY0IDAgMzIgMzIgMCAxIDAtNjQgMFoiIHAtaWQ9IjEwMzg1Ij48L3BhdGg+PHBhdGggZD0iTTQ4MCAxOTJtLTMyIDBhMzIgMzIgMCAxIDAgNjQgMCAzMiAzMiAwIDEgMC02NCAwWiIgcC1pZD0iMTAzODYiPjwvcGF0aD48cGF0aCBkPSJNMjI0IDQ4MGMtMTcuNiAwLTMyIDE0LjQtMzIgMzJzMTQuNCAzMiAzMiAzMmgxMjhjMTcuNiAwIDMyLTE0LjQgMzItMzJzLTE0LjQtMzItMzItMzJIMjI0eiIgcC1pZD0iMTAzODciPjwvcGF0aD48cGF0aCBkPSJNMjI0IDgzMm0tMzIgMGEzMiAzMiAwIDEgMCA2NCAwIDMyIDMyIDAgMSAwLTY0IDBaIiBwLWlkPSIxMDM4OCI+PC9wYXRoPjxwYXRoIGQ9Ik03MzYgNTEyYy0xMjMuODQgMC0yMjQgMTAwLjE2LTIyNCAyMjRzMTAwLjE2IDIyNCAyMjQgMjI0IDIyNC0xMDAuMTYgMjI0LTIyNC0xMDAuMTYtMjI0LTIyNC0yMjR6IG0wIDM4NGMtODguMzIgMC0xNjAtNzEuNjgtMTYwLTE2MHM3MS42OC0xNjAgMTYwLTE2MCAxNjAgNzEuNjggMTYwIDE2MC03MS42OCAxNjAtMTYwIDE2MHoiIHAtaWQ9IjEwMzg5Ij48L3BhdGg+PHBhdGggZD0iTTgzMiA3MDRoLTY0di02NGMwLTE3LjYtMTQuNC0zMi0zMi0zMnMtMzIgMTQuNC0zMiAzMnY5NmMwIDE3LjYgMTQuNCAzMiAzMiAzMmg5NmMxNy42IDAgMzItMTQuNCAzMi0zMnMtMTQuNC0zMi0zMi0zMnpNNDgwIDg5NkgxMjh2LTEyOGgyODhjMTcuNiAwIDMyLTE0LjQgMzItMzJzLTE0LjQtMzItMzItMzJIOTZjLTE3LjYgMC0zMiAxNC40LTMyIDMydjE5MmMwIDE3LjYgMTQuNCAzMiAzMiAzMmgzODRjMTcuNiAwIDMyLTE0LjQgMzItMzJzLTE0LjQtMzItMzItMzJ6TTk2IDY0MGgzNTJjMTcuNiAwIDMyLTE0LjQgMzItMzJzLTE0LjQtMzItMzItMzJIMTI4di0xMjhoNjQwdjMyYzAgMTcuNiAxNC40IDMyIDMyIDMyczMyLTE0LjQgMzItMzJ2LTY0YzAtMTcuNi0xNC40LTMyLTMyLTMySDk2Yy0xNy42IDAtMzIgMTQuNC0zMiAzMnYxOTJjMCAxNy42IDE0LjQgMzIgMzIgMzJ6IiBwLWlkPSIxMDM5MCI+PC9wYXRoPjwvc3ZnPg==;verticalAlign=top;labelPosition=center;verticalLabelPosition=bottom;align=center;" parent="1" vertex="1">
          <mxGeometry x="127" y="1293" width="60" height="60" as="geometry" />
        </mxCell>
        <mxCell id="hd7GLlxzBQkCQPeTxtlU-23" style="edgeStyle=orthogonalEdgeStyle;rounded=0;orthogonalLoop=1;jettySize=auto;html=1;" parent="1" source="hd7GLlxzBQkCQPeTxtlU-11" target="hd7GLlxzBQkCQPeTxtlU-4" edge="1">
          <mxGeometry relative="1" as="geometry" />
        </mxCell>
        <mxCell id="hd7GLlxzBQkCQPeTxtlU-11" value="电商平台API接口服务" style="shape=image;aspect=fixed;image=data:image/svg+xml,PD94bWwgdmVyc2lvbj0iMS4wIiBzdGFuZGFsb25lPSJubyI/PjwhRE9DVFlQRSBzdmcgUFVCTElDICItLy9XM0MvL0RURCBTVkcgMS4xLy9FTiIgImh0dHA6Ly93d3cudzMub3JnL0dyYXBoaWNzL1NWRy8xLjEvRFREL3N2ZzExLmR0ZCI+PHN2ZyB0PSIxNjkyNjA4ODQwMjUyIiBjbGFzcz0iaWNvbiIgdmlld0JveD0iMCAwIDEwMjQgMTAyNCIgdmVyc2lvbj0iMS4xIiB4bWxucz0iaHR0cDovL3d3dy53My5vcmcvMjAwMC9zdmciIHAtaWQ9IjkwNTgiIHhtbG5zOnhsaW5rPSJodHRwOi8vd3d3LnczLm9yZy8xOTk5L3hsaW5rIiB3aWR0aD0iMjAwIiBoZWlnaHQ9IjIwMCI+PHBhdGggZD0iTTkwNiA1NjguMmMtMS4xIDExLTExLjIgMTYuNS0xOS44IDIxLjUtOCA0LjYtMTYgOS4zLTIzLjkgMTMuOS0xMi44IDcuNC0yNS41IDE0LjgtMzguMyAyMi4yLTE2IDkuMy0zMS45IDE4LjYtNDcuOSAyNy44LTE3LjYgMTAuMi0zNS4yIDIwLjUtNTIuOSAzMC43LTE3LjcgMTAuMy0zNS40IDIwLjYtNTMuMiAzMC45LTE2LjMgOS41LTMyLjUgMTguOS00OC44IDI4LjQtMTMuMyA3LjctMjYuNSAxNS40LTM5LjggMjMuMS04LjcgNS0xNy40IDEwLjEtMjYuMSAxNS4xLTYuNiAzLjgtMTIuOCA3LjYtMjAuMyA5LjgtMTkuNSA1LjYtNDEuMSAzLjctNTguNy02LjUtNi4zLTMuNy0xMi43LTcuMy0xOS0xMS0xMS42LTYuNy0yMy4xLTEzLjMtMzQuNy0yMC0xNS4yLTguOC0zMC40LTE3LjYtNDUuNi0yNi4zLTE3LjMtMTAtMzQuNy0yMC01Mi0zMC0xNy45LTEwLjMtMzUuOC0yMC43LTUzLjctMzEtMTYuOS05LjgtMzMuOC0xOS41LTUwLjgtMjkuM2wtNDMuMi0yNC45Yy0xMC4zLTYtMjAuNy0xMS45LTMxLTE3LjktNC43LTIuNy05LjQtNS40LTE0LjEtOC4yLTcuNC00LjMtMTQuNy0xMS4xLTE0LjctMjAuMyAwIDguNCAwIDE2LjgtMC4xIDI1LjMgMCAzLTAuMiA2LjEgMCA5LjIgMC42IDguMSA3IDE0LjQgMTMuNyAxOC40IDQuMSAyLjUgOC4zIDQuOCAxMi41IDcuMiAxMC44IDYuMiAyMS42IDEyLjUgMzIuNCAxOC43IDE1LjYgOSAzMS4xIDE4IDQ2LjcgMjcgMTguNSAxMC43IDM3LjEgMjEuNCA1NS42IDMyLjEgMTkuMyAxMS4yIDM4LjYgMjIuMyA1OCAzMy41IDE4LjQgMTAuNiAzNi43IDIxLjIgNTUuMSAzMS44IDE1LjMgOC44IDMwLjUgMTcuNiA0NS44IDI2LjQgMTAuMyA2IDIwLjcgMTEuOSAzMSAxNy45IDYgMy40IDExLjkgNy4zIDE4LjQgOS43IDIwLjMgNy40IDQ0LjEgNS44IDYyLjgtNS4xIDcuMS00LjEgMTQuMi04LjMgMjEuMy0xMi40IDEzLjEtNy42IDI2LjItMTUuMiAzOS4yLTIyLjggMTcuMS05LjkgMzQuMS0xOS44IDUxLjItMjkuOCAxOS4xLTExLjEgMzguMi0yMi4yIDU3LjItMzMuM2w1Ny4zLTMzLjNjMTcuMS0xMCAzNC4yLTE5LjkgNTEuNC0yOS45IDEzLjMtNy43IDI2LjYtMTUuNCAzOS45LTIzLjIgNy4zLTQuMyAxNC43LTguNSAyMi0xMi44IDIuMi0xLjMgNC41LTIuNiA2LjYtNC4xIDUuNi00LjIgMTAtMTAgMTAuMS0xNy4zIDAuMS0zLjcgMC03LjMgMC0xMSAwLTcuMyAwLTE0LjcgMC4xLTIyIDAuNCAwLjcgMC40IDEuMyAwLjMgMS44IDAgMC4yIDAuMS0wLjMgMCAweiBtMC4xLTEuNnoiIGZpbGw9IiM3QTlFRkQiIHAtaWQ9IjkwNTkiPjwvcGF0aD48cGF0aCBkPSJNODkxLjggNTQ2LjZjMTkgMTEgMTkuMSAyOC45IDAuMiAzOS45TDU0Ny42IDc4Ni43Yy0xOC45IDExLTQ5LjggMTEtNjguOCAwTDEzMi4xIDU4Ni41Yy0xOS0xMS0xOS4xLTI4LjktMC4yLTM5LjlsMzQ0LjQtMjAwLjJjMTguOS0xMSA0OS44LTExIDY4LjggMGwzNDYuNyAyMDAuMnoiIGZpbGw9IiNFNEVDRjkiIHAtaWQ9IjkwNjAiPjwvcGF0aD48cGF0aCBkPSJNNTM4IDUxNy4yaDAuMWMwLjUgMCAxIDAgMS41IDAuMWgwLjFjMC41IDAuMSAwLjkgMC4zIDEuMyAwLjVsLTE3LjUtMTAuMmgtMC4xYy0wLjItMC4xLTAuMy0wLjItMC41LTAuMi0wLjItMC4xLTAuMy0wLjEtMC41LTAuMi0wLjEgMC0wLjItMC4xLTAuMy0wLjFoLTAuMmMtMC4yIDAtMC40LTAuMS0wLjYtMC4xSDUyMGMtMC4zIDAtMC41IDAuMS0wLjggMC4yLTAuMSAwLTAuMiAwLjEtMC4zIDAuMS0wLjEgMC0wLjIgMC4xLTAuMyAwLjEtMC4xIDAuMS0wLjMgMC4xLTAuNCAwLjEtMC40IDAuMi0wLjkgMC40LTEuMyAwLjZsLTUyLjMgMzAuMiAxNy41IDEwLjIgNTIuMy0zMC4yYzAuNi0wLjMgMS4yLTAuNiAxLjctMC44IDAuMSAwIDAuMi0wLjEgMC4zLTAuMSAwLjYtMC4xIDEuMS0wLjIgMS42LTAuMnogbS05Ny41IDU1LjRMNDIzIDU2Mi41bC0wLjEtNDAuNCAxNy41IDEwLjJ6IiBmaWxsPSIjMkEyQUJDIiBwLWlkPSI5MDYxIj48L3BhdGg+PHBhdGggZD0iTTM3OS4xIDYxNi41YzAuMS0wLjcgMC4zLTEuNCAwLjUtMiAwLTAuMSAwLTAuMSAwLjEtMC4yIDAuMi0wLjcgMC41LTEuNSAwLjgtMi4yIDAuMy0wLjcgMC43LTEuNSAxLjEtMi4ydi0wLjFjMC40LTAuNyAwLjgtMS40IDEuMy0yIDAtMC4xIDAuMS0wLjEgMC4xLTAuMiAwLjQtMC42IDAuOS0xLjEgMS40LTEuNmwwLjMtMC4zYzAuNC0wLjQgMC44LTAuOCAxLjItMS4xIDAuMi0wLjIgMC40LTAuMyAwLjUtMC41IDAuNi0wLjUgMS4yLTAuOSAxLjgtMS4ybDUyLjMtMzAuMi0xNy41LTEwLjItNTIuMyAzMC4yYy0wLjYgMC4zLTEuMiAwLjgtMS44IDEuMi0wLjIgMC4xLTAuNCAwLjMtMC41IDAuNS0wLjMgMC4yLTAuNiAwLjUtMC44IDAuNy0wLjEgMC4xLTAuMiAwLjMtMC40IDAuNGwtMC4zIDAuM2MtMC4xIDAuMS0wLjIgMC4yLTAuMyAwLjQtMC4zIDAuMy0wLjUgMC42LTAuOCAwLjktMC4xIDAuMS0wLjIgMC4yLTAuMyAwLjQgMCAwLjEtMC4xIDAuMS0wLjEgMC4yLTAuMSAwLjEtMC4yIDAuMi0wLjIgMC4zLTAuMiAwLjMtMC40IDAuNS0wLjUgMC44LTAuMiAwLjMtMC4zIDAuNS0wLjUgMC44djAuMmMtMC4xIDAuMi0wLjIgMC40LTAuNCAwLjctMC4xIDAuMy0wLjMgMC41LTAuNCAwLjgtMC4xIDAuMi0wLjIgMC41LTAuMyAwLjctMC4xIDAuMy0wLjIgMC42LTAuMyAwLjhsLTAuMyAwLjljMCAwLjEtMC4xIDAuMy0wLjEgMC40IDAgMC4xIDAgMC4xLTAuMSAwLjIgMCAwLjEtMC4xIDAuMi0wLjEgMC4zLTAuMSAwLjQtMC4yIDAuNy0wLjMgMS4xIDAgMC4yLTAuMSAwLjQtMC4xIDAuNiAwIDAuMSAwIDAuMi0wLjEgMC4zIDAgMC4xIDAgMC4yLTAuMSAwLjMtMC4xIDAuNi0wLjEgMS4yLTAuMSAxLjggMCAyLjIgMC42IDMuOSAxLjYgNSAwLjMgMC40IDAuNyAwLjcgMS4xIDAuOWwxNy41IDEwLjJjLTEuNy0xLTIuNy0zLTIuNy02IDAtMC43IDAuMS0xLjQgMC4yLTIuMS0wLjEgMC0wLjEtMC4xLTAuMS0wLjJ6IiBmaWxsPSIjMkEyQUJDIiBwLWlkPSI5MDYyIj48L3BhdGg+PHBhdGggZD0iTTU5NC4yIDIwNi44YzcuNi00LjQgMTMuOS0wLjggMTMuOSA3LjlsMC42IDIwNC4zYzAgOC44LTYuMiAxOS42LTEzLjggMjRMNDgyIDUwOC4ybDAuMSA0MC40IDUyLjMtMzAuMmM1LjEtMyA5LjQtMC42IDkuNCA1LjNzLTQuMiAxMy4yLTkuMyAxNi4xbC0xNDYuMyA4NC40Yy01LjEgMy05LjQgMC42LTkuNC01LjNzNC4yLTEzLjIgOS4zLTE2LjFsNTIuMy0zMC4yLTAuMS00MC40LTExMi45IDY1LjJjLTcuNiA0LjQtMTMuOSAwLjgtMTMuOS03LjlsLTAuNS0yMDQuM2MwLTguOCA2LjItMTkuNiAxMy44LTI0bDI2Ny40LTE1NC40eiIgZmlsbD0iIzQwNDBGRiIgcC1pZD0iOTA2MyI+PC9wYXRoPjxwYXRoIGQ9Ik0zMTMuNiA1ODkuNWwtMTcuNS0xMC4yYzAgMi43IDAuNiA1IDEuNyA2LjYgMC42IDEgMS40IDEuOCAyLjQgMi4zbDE3LjUgMTAuMmMtMi41LTEuNS00LjEtNC41LTQuMS04Ljl6IiBmaWxsPSIjMkEyQUJDIiBwLWlkPSI5MDY0Ij48L3BhdGg+PHBhdGggZD0iTTU4Ni42IDE5NS43Yy0wLjMtMC4yLTAuNS0wLjMtMC44LTAuNGgtMC4xYy0wLjEgMC0wLjItMC4xLTAuMi0wLjEtMC4xIDAtMC4yLTAuMS0wLjQtMC4xLTAuMSAwLTAuMy0wLjEtMC40LTAuMS0wLjEgMC0wLjIgMC0wLjMtMC4xaC0wLjFjLTAuMyAwLTAuNi0wLjEtMC44LTAuMWgtMS45Yy0wLjEgMC0wLjIgMC4xLTAuMyAwLjEtMC4yIDAtMC40IDAuMS0wLjYgMC4xLTAuMSAwLTAuMiAwLTAuMyAwLjEtMC4xIDAtMC4yIDAuMS0wLjMgMC4xLTAuMyAwLjEtMC42IDAuMi0xIDAuMy0wLjEgMC0wLjIgMC4xLTAuMyAwLjEtMC4xIDAtMC4xIDAuMS0wLjIgMC4xLTAuNiAwLjItMS4xIDAuNS0xLjcgMC45TDMwOS4zIDM1MWMtMC43IDAuNC0xLjQgMC45LTIuMSAxLjUtMC4xIDAuMS0wLjIgMC4yLTAuNCAwLjMtMC43IDAuNS0xLjMgMS4xLTEuOSAxLjctMC4xIDAuMS0wLjEgMC4xLTAuMiAwLjFsLTAuMyAwLjNjLTAuMyAwLjMtMC42IDAuNi0wLjkgMWwtMC4zIDAuM2MtMC4xIDAuMS0wLjIgMC4yLTAuMiAwLjMtMC4yIDAuMi0wLjQgMC40LTAuNSAwLjctMC4xIDAuMS0wLjIgMC4zLTAuMyAwLjQtMC4xIDAuMS0wLjIgMC4zLTAuMyAwLjQtMC4xIDAuMi0wLjMgMC4zLTAuNCAwLjUtMC4xIDAuMS0wLjIgMC4yLTAuMyAwLjQtMC4xIDAuMi0wLjMgMC40LTAuNCAwLjYtMC4xIDAuMS0wLjIgMC4zLTAuMyAwLjQgMCAwLjEtMC4xIDAuMS0wLjEgMC4yLTAuMiAwLjQtMC41IDAuOC0wLjcgMS4ydjAuMWMwIDAuMS0wLjEgMC4yLTAuMSAwLjItMC4yIDAuMy0wLjMgMC42LTAuNSAwLjgtMC4xIDAuMS0wLjEgMC4zLTAuMiAwLjQtMC4xIDAuMS0wLjEgMC4zLTAuMiAwLjQtMC4xIDAuMS0wLjEgMC4yLTAuMiAwLjQtMC4yIDAuMy0wLjMgMC42LTAuNCAxIDAgMC4xLTAuMSAwLjEtMC4xIDAuMnYwLjFjLTAuMiAwLjQtMC40IDAuOC0wLjUgMS4zIDAgMC4xLTAuMSAwLjEtMC4xIDAuMi0wLjEgMC4yLTAuMSAwLjMtMC4yIDAuNXMtMC4yIDAuNC0wLjIgMC42Yy0wLjEgMC4yLTAuMSAwLjMtMC4xIDAuNS0wLjEgMC4yLTAuMSAwLjQtMC4yIDAuNiAwIDAuMS0wLjEgMC4yLTAuMSAwLjQtMC4xIDAuMi0wLjEgMC40LTAuMiAwLjYtMC4xIDAuMi0wLjEgMC41LTAuMiAwLjcgMCAwLjEgMCAwLjItMC4xIDAuMyAwIDAuMi0wLjEgMC4zLTAuMSAwLjUtMC4xIDAuNC0wLjEgMC43LTAuMiAxLjEgMCAwLjEgMCAwLjItMC4xIDAuM3YwLjNjLTAuMSAwLjgtMC4yIDEuNi0wLjIgMi40bDAuNiAyMDQuMyAxNy41IDEwLjItMC42LTIwNC41YzAtMC44IDAuMS0xLjYgMC4yLTIuNCAwLTAuMiAwLTAuNCAwLjEtMC42IDAuMS0wLjQgMC4xLTAuNyAwLjItMS4xIDAtMC4zIDAuMS0wLjUgMC4yLTAuOCAwLjEtMC4yIDAuMS0wLjUgMC4yLTAuNyAwLjEtMC4zIDAuMi0wLjcgMC4zLTEgMC4xLTAuMiAwLjEtMC40IDAuMi0wLjYgMC4xLTAuNCAwLjItMC43IDAuNC0xLjEgMC4xLTAuMSAwLjEtMC4zIDAuMi0wLjRsMC42LTEuNWMwLTAuMSAwLjEtMC4xIDAuMS0wLjIgMC4yLTAuNCAwLjQtMC45IDAuNi0xLjMgMC4xLTAuMSAwLjEtMC4zIDAuMi0wLjQgMC4yLTAuNCAwLjQtMC44IDAuNy0xLjIgMC0wLjEgMC4xLTAuMiAwLjEtMC4yIDAuMy0wLjUgMC42LTEgMC45LTEuNCAwLjEtMC4xIDAuMi0wLjMgMC4zLTAuNCAwLjItMC4zIDAuNS0wLjcgMC43LTEgMC4xLTAuMiAwLjMtMC40IDAuNC0wLjUgMC4yLTAuMyAwLjQtMC41IDAuNi0wLjggMC4yLTAuMiAwLjQtMC40IDAuNS0wLjcgMC4yLTAuMiAwLjQtMC40IDAuNS0wLjYgMC4zLTAuMyAwLjYtMC43IDAuOS0xbDAuNS0wLjVjMC42LTAuNiAxLjMtMS4yIDEuOS0xLjcgMC4xLTAuMSAwLjItMC4yIDAuNC0wLjNsMi4xLTEuNSAyNjcuNC0xNTQuNGMwLjYtMC4zIDEuMi0wLjYgMS43LTAuOSAwLjItMC4xIDAuNC0wLjEgMC41LTAuMiAwLjMtMC4xIDAuNy0wLjIgMS0wLjMgMC4yLTAuMSAwLjQtMC4xIDAuNi0wLjIgMC4yIDAgMC40LTAuMSAwLjYtMC4xIDAuMyAwIDAuNS0wLjEgMC43LTAuMWgxLjVjMC40IDAgMC43IDAuMSAxIDAuMSAwLjEgMCAwLjIgMCAwLjIgMC4xIDAuMyAwLjEgMC41IDAuMSAwLjggMC4yIDAuMSAwIDAuMiAwLjEgMC4yIDAuMSAwLjMgMC4xIDAuNiAwLjMgMC45IDAuNGwtMTcuNS0xMC4zeiIgZmlsbD0iIzJBMkFCQyIgcC1pZD0iOTA2NSI+PC9wYXRoPjxwYXRoIGQ9Ik01ODIuNCAyMzEuNmMzLjYtMi4xIDYuNS0wLjQgNi41IDMuN2wwLjUgMTYzLjRjMCA0LjEtMi45IDkuMS02LjUgMTEuMkwzNDYuMyA1NDYuNWMtMy42IDIuMS02LjUgMC40LTYuNS0zLjdsLTAuNS0xNjMuNGMwLTQuMSAyLjktOS4xIDYuNS0xMS4ybDIzNi42LTEzNi42eiIgZmlsbD0iIzJBMkFCQyIgcC1pZD0iOTA2NiI+PC9wYXRoPjxwYXRoIGQ9Ik00NTcuOCA0OTIuMmM1LjgtMy40IDEwLjYtMC43IDEwLjYgNi4xIDAgNi43LTQuNyAxNC45LTEwLjUgMTguMy01LjkgMy40LTEwLjYgMC43LTEwLjYtNi4xLTAuMS02LjggNC43LTE1IDEwLjUtMTguM3oiIGZpbGw9IiNGRkZGRkYiIHAtaWQ9IjkwNjciPjwvcGF0aD48cGF0aCBkPSJNNTEzLjQgMzc2LjNsLTEyLjMtNy4yLTAuMy0wLjMgMTIuMyA3LjIgMC4zIDAuMyIgZmlsbD0iIzY3NDYxMSIgcC1pZD0iOTA2OCI+PC9wYXRoPjxwYXRoIGQ9Ik01MDkuNCAzNzAuOGwtMTIuMy03LjEgMy43IDUuMSAxMi4zIDcuMnoiIGZpbGw9IiNBQ0M1RUEiIHAtaWQ9IjkwNjkiPjwvcGF0aD48cGF0aCBkPSJNNTEyLjUgMzI2LjdjMS42LTAuOSAyLjcgMC41IDEuOSAyLjZMNTAzLjMgMzU4Yy0wLjQgMS4xLTEuMSAxLjktMS45IDIuMy0wLjcgMC40LTEuNCAwLjQtMS45LTAuMmwtMy43LTUuMS0zMy40IDQxLjdjLTAuNiAwLjgtMS4zIDEuMy0xLjkgMS43LTEuMyAwLjgtMi42IDAuNy0zLjQtMC4zbC05LjUtMTMuMy0zMy4yIDQxLjRjLTAuNiAwLjgtMS4zIDEuMy0xLjkgMS43LTEuMyAwLjgtMi42IDAuNy0zLjQtMC4zLTEuMS0xLjUtMC41LTQuNiAxLjQtNi45bDM2LjUtNDUuNWMwLjYtMC44IDEuMy0xLjMgMS45LTEuNyAxLjMtMC44IDIuNi0wLjcgMy40IDAuM2w5LjUgMTMuMyAzMC4xLTM3LjUtMy43LTUuMWMtMC44LTEuMiAwLjItMy44IDEuOC00LjdsMjIuNS0xMy4xeiIgZmlsbD0iIzE2MTY5MSIgcC1pZD0iOTA3MCI+PC9wYXRoPjxwYXRoIGQ9Ik00NjMuMiAzOTUuN2wxMi4zIDcuMiAzMC0zNy41LTMuNy01LjItMTIuMy03LjEgMy43IDUuMXoiIGZpbGw9IiNBQ0M1RUEiIHAtaWQ9IjkwNzEiPjwvcGF0aD48cGF0aCBkPSJNNTI3LjUgMzQyLjRsLTYuMy0zLjYtNi0zLjVzLTAuMSAwLTAuMS0wLjFINTE0LjFjLTAuMSAwLTAuMiAwLjEtMC4zIDAuMmwtMjIuNCAxM2MtMC4yIDAuMS0wLjUgMC4zLTAuNyAwLjVoLTAuMWwtMC4yIDAuMmMwIDAuMS0wLjEgMC4xLTAuMSAwLjJzLTAuMSAwLjEtMC4xIDAuMi0wLjEgMC4xLTAuMSAwLjItMC4xIDAuMS0wLjEgMC4ydjAuMXMwIDAuMS0wLjEgMC4xYzAgMC4xLTAuMSAwLjEtMC4xIDAuMnMtMC4xIDAuMS0wLjEgMC4yLTAuMSAwLjEtMC4xIDAuMi0wLjEgMC4xLTAuMSAwLjIgMCAwLjEtMC4xIDAuMmMwIDAuMSAwIDAuMi0wLjEgMC4zdjEuMWMwIDAuMiAwLjEgMC40IDAuMiAwLjZsMTIuMyA3LjJjLTAuMS0wLjItMC4yLTAuNC0wLjItMC42di0xLjFjMC4xLTAuNSAwLjMtMC45IDAuNS0xLjQgMC4xLTAuMiAwLjMtMC40IDAuNC0wLjYgMC4xLTAuMiAwLjMtMC4zIDAuNC0wLjUgMC4yLTAuMiAwLjQtMC40IDAuNy0wLjVsMjIuNC0xM2MwLjEtMC4xIDAuMy0wLjEgMC40LTAuMmgwLjFjMC4xIDAgMC4yLTAuMSAwLjQtMC4xaDAuNHMwLjEgMCAwLjIgMC4xeiBtLTU2LjggNzEuNWwtOS41LTEzLjMtMTIuMy03LjIgOS41IDEzLjMgMC42IDAuNiAxMi4zIDcuMmMtMC4yLTAuMi0wLjQtMC4zLTAuNi0wLjZ6IiBmaWxsPSIjQUNDNUVBIiBwLWlkPSI5MDcyIj48L3BhdGg+PHBhdGggZD0iTTQ1MyAzODEuOWMtMC4xIDAtMC4xLTAuMS0wLjItMC4xcy0wLjEtMC4xLTAuMi0wLjFINDUxLjZjLTAuMSAwLTAuMiAwLTAuMyAwLjEtMC4xIDAtMC4xIDAtMC4yIDAuMWgtMC4yYy0wLjIgMC4xLTAuNCAwLjItMC41IDAuM2wtMC45IDAuNi0wLjIgMC4yLTAuMiAwLjJjLTAuMSAwLjEtMC4zIDAuMy0wLjQgMC41LTAuMSAwLjEtMC4xIDAuMi0wLjIgMC4zTDQxMiA0MjkuNWwxMi4zIDcuMiAzNi41LTQ1LjUgMC45LTAuOSAwLjItMC4yYzAuMy0wLjIgMC42LTAuNSAwLjktMC42IDAuMi0wLjEgMC41LTAuMiAwLjctMC4zaDAuMWMwLjItMC4xIDAuNC0wLjEgMC42LTAuMWgwLjdjMC4yIDAgMC40IDAuMSAwLjYgMC4ybC0xMi41LTcuNHoiIGZpbGw9IiNBQ0M1RUEiIHAtaWQ9IjkwNzMiPjwvcGF0aD48cGF0aCBkPSJNNDExLjUgNDI5LjljLTAuMSAwLjEtMC4yIDAuMi0wLjIgMC4zdjAuMWMwIDAuMS0wLjEgMC4xLTAuMSAwLjItMC4xIDAuMS0wLjEgMC4yLTAuMiAwLjMtMC4xIDAuMS0wLjEgMC4yLTAuMiAwLjMgMCAwLjEtMC4xIDAuMi0wLjEgMC4zIDAgMC4xLTAuMSAwLjItMC4xIDAuMyAwIDAuMS0wLjEgMC4yLTAuMSAwLjMgMCAwLjEtMC4xIDAuMy0wLjEgMC40IDAgMC4xLTAuMSAwLjMtMC4xIDAuNHYwLjJjMCAwLjEtMC4xIDAuMy0wLjEgMC40djAuMWMwIDAuNS0wLjEgMC45IDAgMS4zdjAuMmMwLjEgMC40IDAuMiAwLjggMC40IDEuMSAwLjIgMC4yIDAuNCAwLjQgMC42IDAuNWwxMi4zIDcuMmMtMC4yLTAuMS0wLjQtMC4zLTAuNi0wLjUtMC4yLTAuMy0wLjMtMC43LTAuNC0xLjF2LTAuMmMtMC4xLTAuNC0wLjEtMC44IDAtMS4zIDAtMC4yIDAtMC4zIDAuMS0wLjV2LTAuMWMwLjEtMC4zIDAuMS0wLjYgMC4yLTAuOSAwLjEtMC4zIDAuMi0wLjYgMC40LTAuOSAwLjEtMC4zIDAuMy0wLjYgMC41LTAuOWwwLjYtMC45LTEyLjMtNy4yLTAuMSAwLjFjLTAuMyAwLjMtMC4zIDAuNC0wLjQgMC41eiIgZmlsbD0iI0FDQzVFQSIgcC1pZD0iOTA3NCI+PC9wYXRoPjxwYXRoIGQ9Ik01MjYgMzQyLjVjMS42LTAuOSAyLjcgMC41IDEuOSAyLjZsLTExLjEgMjguN2MtMC40IDEuMS0xLjEgMS45LTEuOSAyLjMtMC43IDAuNC0xLjQgMC40LTEuOS0wLjJsLTMuNy01LjEtMzMuMyA0MS43Yy0wLjYgMC44LTEuMyAxLjMtMS45IDEuNy0xLjMgMC44LTIuNiAwLjctMy40LTAuM2wtOS41LTEzLjNMNDI4IDQ0MmMtMC42IDAuOC0xLjMgMS4zLTEuOSAxLjctMS4zIDAuOC0yLjYgMC43LTMuNC0wLjMtMS4xLTEuNS0wLjUtNC42IDEuNC02LjlsMzYuNS00NS41YzAuNi0wLjggMS4zLTEuMyAxLjktMS43IDEuMy0wLjggMi42LTAuNyAzLjQgMC4zbDkuNSAxMy4zIDMwLjEtMzcuNS0zLjctNS4xYy0wLjgtMS4yIDAuMi0zLjggMS44LTQuN2wyMi40LTEzLjF6IiBmaWxsPSIjRkZGRkZGIiBwLWlkPSI5MDc1Ij48L3BhdGg+PHBhdGggZD0iTTY3NC4zIDUwNy40bC0xNC44LTguNmMwIDAuOSAwLjIgMS43IDAuNSAyLjNzMC43IDEuMSAxLjIgMS40bDE0LjggOC42Yy0xLTAuNi0xLjctMS45LTEuNy0zLjd6IG00MC44LTk4LjZzLTAuMSAwIDAgMGMtMC4xLTAuMS0wLjItMC4xLTAuMy0wLjItMC4xIDAtMC4yLTAuMS0wLjMtMC4xSDcxMy4xYy0wLjIgMC0wLjMgMC4xLTAuNSAwLjEtMC4xIDAtMC4xIDAuMS0wLjIgMC4xcy0wLjEgMC0wLjIgMC4xYy0wLjEgMC0wLjIgMC4xLTAuMyAwLjEtMC4zIDAuMS0wLjUgMC4yLTAuOCAwLjRsLTQ1LjkgMjYuNWMtMC40IDAuMi0wLjcgMC41LTEuMSAwLjdsLTAuMyAwLjNjLTAuMiAwLjEtMC4zIDAuMy0wLjUgMC40bC0wLjIgMC4yLTAuMiAwLjItMC4yIDAuMmMtMC4yIDAuMi0wLjMgMC40LTAuNSAwLjYtMC4xIDAuMS0wLjEgMC4yLTAuMiAwLjJsLTAuMSAwLjFjMCAwLjEtMC4xIDAuMS0wLjEgMC4yLTAuMSAwLjItMC4yIDAuMy0wLjMgMC41LTAuMSAwLjItMC4yIDAuMy0wLjMgMC41djAuMWMtMC4xIDAuMS0wLjEgMC4zLTAuMiAwLjQtMC4xIDAuMi0wLjIgMC4zLTAuMyAwLjUtMC4xIDAuMi0wLjEgMC4zLTAuMiAwLjVzLTAuMSAwLjMtMC4yIDAuNS0wLjEgMC40LTAuMiAwLjVjMCAwLjEtMC4xIDAuMi0wLjEgMC4zdjAuMWMwIDAuMSAwIDAuMS0wLjEgMC4yLTAuMSAwLjItMC4xIDAuNC0wLjIgMC43IDAgMC4xIDAgMC4zLTAuMSAwLjR2MC40YzAgMC40LTAuMSAwLjgtMC4xIDEuMWwwLjIgNTMuMSAxNC44IDguNi0wLjItNTMuMWMwLTAuNCAwLTAuOSAwLjEtMS4zdi0wLjJjMC4xLTAuNCAwLjItMC44IDAuMy0xLjN2LTAuMWMwLjEtMC41IDAuMy0wLjkgMC41LTEuNCAwLjItMC41IDAuNC0wLjkgMC43LTEuMyAwLjItMC40IDAuNS0wLjggMC44LTEuMmwwLjEtMC4xYzAuMy0wLjQgMC41LTAuNyAwLjgtMWwwLjItMC4yIDAuNy0wLjcgMC4zLTAuM2MwLjMtMC4zIDAuNy0wLjUgMS4xLTAuN2w0NS45LTI2LjVjMC40LTAuMiAwLjctMC40IDEuMS0wLjUgMC4xIDAgMC4xIDAgMC4yLTAuMSAwLjMtMC4xIDAuNi0wLjIgMC45LTAuMmgxYzAuMyAwLjEgMC42IDAuMiAwLjggMC4zbC0xNC43LTguNnoiIGZpbGw9IiNDNjg2MjAiIHAtaWQ9IjkwNzYiPjwvcGF0aD48cGF0aCBkPSJNNzI1LjggNDE3LjhjMy4yLTEuOCA1LjctMC4zIDUuOCAzLjNsMC4yIDUzLjFjMCAzLjYtMi42IDguMS01LjcgMTBsLTQ1LjkgMjYuNWMtMy4yIDEuOC01LjggMC4zLTUuOC0zLjNsLTAuMi01My4xYzAtMy42IDIuNi04LjEgNS43LTkuOWw0NS45LTI2LjZ6IiBmaWxsPSIjRkZDRDJFIiBwLWlkPSI5MDc3Ij48L3BhdGg+PHBhdGggZD0iTTcxMi41IDQ1MC41YzIuMy0xLjMgNC4yLTAuNSA0LjIgMS44cy0xLjkgNS4zLTQuMiA2LjZsLTIxLjggMTIuNmMtMi4zIDEuMy00LjIgMC41LTQuMi0xLjhzMS45LTUuMyA0LjItNi42bDIxLjgtMTIuNnoiIGZpbGw9IiNDNjg2MjAiIHAtaWQ9IjkwNzgiPjwvcGF0aD48cGF0aCBkPSJNNzI0LjUgNDU3LjljMC4zLTAuMSAwLjUtMC4xIDAuNy0wLjJoMC44YzAuMiAwIDAuNCAwLjEgMC42IDAuMmwtMTAuMS01LjljLTAuMSAwLTAuMS0wLjEtMC4yLTAuMXMtMC4xLTAuMS0wLjItMC4xSDcxNWMtMC4xIDAtMC4zIDAtMC40IDAuMS0wLjEgMC0wLjEgMC0wLjIgMC4xLTAuMSAwLTAuMSAwLTAuMiAwLjEtMC4xIDAtMC4xIDAtMC4yIDAuMS0wLjIgMC4xLTAuNCAwLjItMC43IDAuM0w2OTEuNiA0NjVjLTAuMyAwLjItMC42IDAuNC0wLjggMC42LTAuMSAwLjEtMC4yIDAuMi0wLjMgMC4yLTAuMiAwLjEtMC4zIDAuMy0wLjUgMC40bC0wLjEgMC4xLTAuNCAwLjRjLTAuMSAwLjEtMC4yIDAuMi0wLjIgMC4zIDAgMCAwIDAuMS0wLjEgMC4xdjAuMWMtMC4xIDAuMS0wLjIgMC4zLTAuMyAwLjQtMC4xIDAuMS0wLjIgMC4yLTAuMiAwLjQtMC4xIDAuMS0wLjEgMC4yLTAuMiAwLjMtMC4xIDAuMS0wLjEgMC4yLTAuMiAwLjMtMC4xIDAuMS0wLjEgMC4yLTAuMiAwLjMtMC4xIDAuMS0wLjEgMC4yLTAuMSAwLjMgMCAwLjEtMC4xIDAuMi0wLjEgMC4zIDAgMC4xLTAuMSAwLjItMC4xIDAuMyAwIDAuMS0wLjEgMC4yLTAuMSAwLjMgMCAwLjEtMC4xIDAuMy0wLjEgMC40djFjMCAxIDAuNCAxLjggMSAyLjFsMTAuMSA1LjljLTAuNi0wLjQtMS0xLjEtMS0yLjEgMC0wLjMgMC0wLjUgMC4xLTAuOHYtMC4xYzAuMS0wLjMgMC4xLTAuNiAwLjItMC45IDAuMS0wLjMgMC4yLTAuNiAwLjQtMC45IDAuMS0wLjMgMC4zLTAuNiAwLjUtMC45IDAuMi0wLjMgMC40LTAuNiAwLjYtMC44IDAgMCAwLTAuMSAwLjEtMC4xIDAuMi0wLjIgMC40LTAuNSAwLjYtMC43bDAuMS0wLjEgMC41LTAuNWMwLjEtMC4xIDAuMi0wLjIgMC4zLTAuMiAwLjMtMC4yIDAuNS0wLjQgMC44LTAuNmwyMS44LTEyLjZjMC4zLTAuMiAwLjYtMC4zIDAuOC0wLjQtMC4xIDAuMS0wLjEgMC4xIDAgMC4xeiIgZmlsbD0iI0U4Q0ZBQyIgcC1pZD0iOTA3OSI+PC9wYXRoPjxwYXRoIGQ9Ik03MjMuNSA0NTguM2MyLjMtMS4zIDQuMi0wLjUgNC4yIDEuOHMtMS45IDUuMy00LjIgNi42bC0yMS44IDEyLjZjLTIuMyAxLjMtNC4yIDAuNS00LjItMS44czEuOS01LjMgNC4yLTYuNmwyMS44LTEyLjZ6IiBmaWxsPSIjRkZGRkZGIiBwLWlkPSI5MDgwIj48L3BhdGg+PHBhdGggZD0iTTU4OS4yIDU1MC4xbC0xNC44LTguNmMwIDEuOCAwLjcgMy4xIDEuNyAzLjdsMTQuOCA4LjZjLTEtMC42LTEuNy0xLjktMS43LTMuN3ogbTQwLjctOTguNmMtMC4xLTAuMS0wLjItMC4xLTAuMy0wLjItMC4xIDAtMC4yLTAuMS0wLjMtMC4xSDYyNy45Yy0wLjIgMC0wLjMgMC4xLTAuNSAwLjEtMC4xIDAtMC4xIDAuMS0wLjIgMC4xcy0wLjEgMC0wLjIgMC4xYy0wLjEgMC0wLjIgMC4xLTAuMyAwLjEtMC4zIDAuMS0wLjUgMC4yLTAuOCAwLjRMNTgwIDQ3OC40Yy0wLjQgMC4yLTAuNyAwLjUtMS4xIDAuN2wtMC4zIDAuM2MtMC4yIDAuMS0wLjMgMC4zLTAuNSAwLjRsLTAuMiAwLjItMC4yIDAuMi0wLjIgMC4yYy0wLjIgMC4yLTAuMyAwLjQtMC41IDAuNi0wLjEgMC4xLTAuMSAwLjItMC4yIDAuMmwtMC4xIDAuMWMwIDAuMS0wLjEgMC4xLTAuMSAwLjItMC4xIDAuMi0wLjIgMC4zLTAuMyAwLjUtMC4xIDAuMi0wLjIgMC4zLTAuMyAwLjV2MC4xYy0wLjEgMC4xLTAuMSAwLjMtMC4yIDAuNC0wLjEgMC4yLTAuMiAwLjMtMC4zIDAuNS0wLjEgMC4yLTAuMSAwLjMtMC4yIDAuNXMtMC4xIDAuMy0wLjIgMC41LTAuMSAwLjQtMC4yIDAuNWMwIDAuMS0wLjEgMC4yLTAuMSAwLjN2MC4xYzAgMC4xIDAgMC4xLTAuMSAwLjItMC4xIDAuMi0wLjEgMC40LTAuMiAwLjcgMCAwLjEgMCAwLjMtMC4xIDAuNHYwLjRjMCAwLjQtMC4xIDAuOC0wLjEgMS4xbDAuMiA1My4xIDE0LjggOC42LTAuMi01My4xYzAtMC40IDAtMC45IDAuMS0xLjN2LTAuMmMwLjEtMC40IDAuMi0wLjggMC4zLTEuM3YtMC4xYzAuMS0wLjUgMC4zLTAuOSAwLjUtMS40IDAuMi0wLjUgMC40LTAuOSAwLjctMS4zIDAuMi0wLjQgMC41LTAuOCAwLjgtMS4ybDAuMS0wLjFjMC4zLTAuNCAwLjUtMC43IDAuOC0xbDAuMi0wLjIgMC43LTAuNyAwLjMtMC4zYzAuMy0wLjMgMC43LTAuNSAxLjEtMC43bDQ1LjktMjYuNWMwLjQtMC4yIDAuNy0wLjQgMS4xLTAuNSAwLjEgMCAwLjEgMCAwLjItMC4xIDAuMy0wLjEgMC42LTAuMiAwLjktMC4yaDFjMC4zIDAuMSAwLjYgMC4yIDAuOCAwLjNsLTE0LjctOC41eiIgZmlsbD0iI0M2ODYyMCIgcC1pZD0iOTA4MSI+PC9wYXRoPjxwYXRoIGQ9Ik02NDAuNyA0NjAuNWMzLjItMS44IDUuOC0wLjMgNS44IDMuM2wwLjIgNTMuMWMwIDMuNy0yLjYgOC4xLTUuNyAxMGwtNDYgMjYuNWMtMy4xIDEuOC01LjcgMC4zLTUuOC0zLjNMNTg5IDQ5N2MwLTMuNiAyLjYtOC4xIDUuNy05LjlsNDYtMjYuNnoiIGZpbGw9IiNGRkNEMkUiIHAtaWQ9IjkwODIiPjwvcGF0aD48cGF0aCBkPSJNNjEzLjMgNDg4YzEuOS0xLjEgMy41IDAuMSAzLjUgMi42djguMWw3LTRjMi4yLTEuMyA0LTAuNSA0IDEuN3MtMS44IDUuMS00IDYuM2wtNyA0djguMWMwIDIuNS0xLjYgNS41LTMuNSA2LjYtMS45IDEuMS0zLjUtMC4xLTMuNS0yLjZ2LTguMWwtNyA0Yy0yLjIgMS4zLTQgMC41LTQtMS43czEuOC01LjEgNC02LjNsNy00di04LjFjMC0yLjUgMS42LTUuNSAzLjUtNi42eiIgZmlsbD0iI0M2ODYyMCIgcC1pZD0iOTA4MyI+PC9wYXRoPjxwYXRoIGQ9Ik02MjEuMSA1MjYuMVY1MThsLTkuNy01Ljd2OC4xYzAgMS40IDAuNSAyLjQgMS4yIDIuOGw5LjcgNS43Yy0wLjgtMC40LTEuMi0xLjQtMS4yLTIuOHogbTE0LjgtMjQuNWMwLjItMC4xIDAuNS0wLjEgMC43LTAuMmgwLjhjMC4yIDAgMC40IDAuMSAwLjYgMC4ybC05LjctNS43Yy0wLjEgMC0wLjEtMC4xLTAuMi0wLjFzLTAuMS0wLjEtMC4yLTAuMUg2MjYuOWMtMC4xIDAtMC4zIDAtMC40IDAuMS0wLjEgMC0wLjEgMC0wLjIgMC4xLTAuMSAwLTAuMSAwLTAuMiAwLjEtMC4xIDAtMC4xIDAtMC4yIDAuMWwtMC42IDAuMy03IDQgOS43IDUuNyA3LTRjMC4zLTAuMiAwLjUtMC4zIDAuOC0wLjQgMC0wLjEgMC4xLTAuMSAwLjEtMC4xeiIgZmlsbD0iI0U4Q0ZBQyIgcC1pZD0iOTA4NCI+PC9wYXRoPjxwYXRoIGQ9Ik02MTAuMiA1MTkuNWMwLjEtMC4zIDAuMS0wLjYgMC4yLTAuOCAwLjEtMC4zIDAuMi0wLjYgMC40LTAuOSAwLjEtMC4zIDAuMy0wLjYgMC41LTAuOSAwLjItMC4zIDAuNC0wLjUgMC42LTAuOGwwLjEtMC4xIDAuNi0wLjYgMC4xLTAuMWMwLjItMC4yIDAuMy0wLjMgMC41LTAuNCAwLjEtMC4xIDAuMi0wLjEgMC4yLTAuMiAwLjMtMC4yIDAuNS0wLjQgMC44LTAuNWw3LTQtOS43LTUuNy03IDRjLTAuMyAwLjItMC41IDAuMy0wLjggMC41LTAuMSAwLjEtMC4yIDAuMS0wLjIgMC4yLTAuMiAwLjEtMC4zIDAuMy0wLjUgMC40bC0wLjEgMC4xYy0wLjEgMC4xLTAuMiAwLjItMC4zIDAuNC0wLjEgMC4xLTAuMiAwLjItMC4yIDAuM2wtMC4xIDAuMXYwLjFjLTAuMSAwLjEtMC4yIDAuMi0wLjMgMC40LTAuMSAwLjEtMC4yIDAuMi0wLjIgMC4zLTAuMSAwLjEtMC4xIDAuMi0wLjIgMC4yLTAuMSAwLjEtMC4xIDAuMi0wLjIgMC4zLTAuMSAwLjEtMC4xIDAuMi0wLjIgMC4zIDAgMC4xLTAuMSAwLjItMC4xIDAuMyAwIDAuMS0wLjEgMC4yLTAuMSAwLjMgMCAwLjEtMC4xIDAuMi0wLjEgMC4zIDAgMC4xLTAuMSAwLjItMC4xIDAuMyAwIDAuMS0wLjEgMC4yLTAuMSAwLjR2MWMwIDEgMC40IDEuNyAxIDIuMWw5LjcgNS43Yy0wLjYtMC40LTEtMS4xLTEtMi4xIDAtMC4zIDAtMC41IDAuMS0wLjgtMC40IDAtMC4zLTAuMS0wLjMtMC4xeiIgZmlsbD0iI0U4Q0ZBQyIgcC1pZD0iOTA4NSI+PC9wYXRoPjxwYXRoIGQ9Ik02MjQuNSA0OTUuM2MxLjktMS4xIDMuNSAwLjEgMy41IDIuNnY4LjFsNy00YzIuMi0xLjMgNC0wLjUgNCAxLjdzLTEuOCA1LjEtNCA2LjNsLTcgNHY4LjFjMCAyLjUtMS42IDUuNS0zLjUgNi42LTEuOSAxLjEtMy41LTAuMS0zLjUtMi42VjUxOGwtNyA0Yy0yLjIgMS4zLTQgMC41LTQtMS43czEuOC01LjEgNC02LjNsNy00di04LjFjMC0yLjUgMS42LTUuNSAzLjUtNi42eiIgZmlsbD0iI0ZGRkZGRiIgcC1pZD0iOTA4NiI+PC9wYXRoPjxwYXRoIGQ9Ik02MjEuMSA1MDAuOWMwLTAuMyAwLjEtMC42IDAuMi0wLjh2LTAuMWwwLjMtMC45YzAuMS0wLjMgMC4zLTAuNiAwLjQtMC45IDAuMi0wLjMgMC4zLTAuNiAwLjUtMC44di0wLjFjMC4yLTAuMyAwLjQtMC41IDAuNi0wLjcgMC4xLTAuMiAwLjMtMC4zIDAuNC0wLjQgMC4zLTAuMyAwLjYtMC41IDAuOS0wLjdsMC42LTAuM2gwLjFjMC4yLTAuMSAwLjQtMC4xIDAuNS0wLjFoMC41YzAuMiAwIDAuMyAwLjEgMC41IDAuMmwtOS43LTUuN2MtMC4xIDAtMC4xLTAuMS0wLjItMC4xcy0wLjEgMC0wLjItMC4xSDYxNS43Yy0wLjEgMC0wLjIgMC0wLjMgMC4xaC0wLjJjLTAuMSAwLTAuMSAwLTAuMiAwLjFzLTAuMyAwLjEtMC40IDAuMmMtMC4zIDAuMi0wLjYgMC40LTAuOSAwLjcgMCAwLTAuMSAwLTAuMSAwLjEtMC4xIDAuMS0wLjIgMC4yLTAuMyAwLjRsLTAuMyAwLjNjLTAuMSAwLjEtMC4yIDAuMi0wLjIgMC4zIDAgMCAwIDAuMS0wLjEgMC4xdjAuMWwtMC4xIDAuMWMtMC4xIDAuMS0wLjEgMC4yLTAuMiAwLjMtMC4xIDAuMS0wLjEgMC4yLTAuMiAwLjMgMCAwLjEtMC4xIDAuMi0wLjEgMC4yLTAuMSAwLjEtMC4xIDAuMi0wLjIgMC4zIDAgMC4xLTAuMSAwLjItMC4xIDAuMy0wLjEgMC4xLTAuMSAwLjMtMC4xIDAuNCAwIDAuMS0wLjEgMC4zLTAuMSAwLjR2MC4yYzAgMC4xLTAuMSAwLjMtMC4xIDAuNCAwIDAuMi0wLjEgMC4zLTAuMSAwLjV2MC4yYzAgMC4zLTAuMSAwLjYtMC4xIDAuOXY4LjFsOS43IDUuN1Y1MDJjMC0wLjMgMC0wLjYgMC4xLTAuOXYtMC4yeiIgZmlsbD0iI0U4Q0ZBQyIgcC1pZD0iOTA4NyI+PC9wYXRoPjxwYXRoIGQ9Ik02NDQuOCA1NjMuNWwtMTQuOC04LjZjLTAuMS0wLjEtMC4yLTAuMS0wLjMtMC4xLTAuMSAwLTAuMi0wLjEtMC4zLTAuMUg2MjhjLTAuMiAwLTAuMyAwLjEtMC41IDAuMS0wLjEgMC0wLjEgMC0wLjIgMC4xLTAuMSAwLTAuMSAwLTAuMiAwLjEtMC4xIDAtMC4yIDAuMS0wLjMgMC4xLTAuMyAwLjEtMC41IDAuMi0wLjggMC40bC00NiAyNi4zYy0wLjQgMC4yLTAuNyAwLjUtMS4xIDAuN2wtMC4zIDAuM2MtMC4yIDAuMS0wLjMgMC4zLTAuNSAwLjQtMC4xIDAuMS0wLjIgMC4yLTAuMiAwLjNsLTAuMiAwLjItMC4yIDAuMmMtMC4yIDAuMi0wLjMgMC40LTAuNSAwLjYtMC4xIDAuMS0wLjEgMC4yLTAuMiAwLjJsLTAuMSAwLjFjMCAwLjEtMC4xIDAuMS0wLjEgMC4yLTAuMSAwLjItMC4yIDAuMy0wLjMgMC41LTAuMSAwLjItMC4yIDAuMy0wLjMgMC41djAuMmMtMC4xIDAuMS0wLjEgMC4yLTAuMiAwLjRzLTAuMiAwLjMtMC4zIDAuNWMtMC4xIDAuMi0wLjIgMC4zLTAuMiAwLjUtMC4xIDAuMi0wLjEgMC4zLTAuMiAwLjVzLTAuMSAwLjQtMC4yIDAuNmMwIDAuMS0wLjEgMC4yLTAuMSAwLjN2MC4xYzAgMC4xIDAgMC4xLTAuMSAwLjItMC4xIDAuMi0wLjEgMC40LTAuMiAwLjcgMCAwLjEgMCAwLjMtMC4xIDAuNHYwLjRjMCAwLjQtMC4xIDAuOC0wLjEgMS4xbDAuMiA1My4xIDUuNCAzLjItNS40LTMuMmMwIDEuOCAwLjcgMy4xIDEuNyAzLjdsMTQuOCA4LjZjLTEtMC42LTEuNy0xLjktMS43LTMuN2wtMC4yLTUzLjFjMC0wLjQgMC0wLjkgMC4xLTEuM3YtMC4yYzAuMS0wLjQgMC4yLTAuOCAwLjMtMS4zdi0wLjFjMC4xLTAuNSAwLjMtMC45IDAuNS0xLjQgMC4yLTAuNSAwLjQtMC45IDAuNy0xLjN2LTAuMWMwLjItMC40IDAuNS0wLjggMC44LTEuMmwwLjEtMC4xYzAuMy0wLjQgMC41LTAuNyAwLjgtMWwwLjItMC4yIDAuNy0wLjcgMC4zLTAuM2MwLjMtMC4zIDAuNy0wLjUgMS4xLTAuN2w0NS45LTI2LjVjMC40LTAuMiAwLjctMC40IDEuMS0wLjUgMC4xIDAgMC4xIDAgMC4yLTAuMSAwLjMtMC4xIDAuNi0wLjIgMC45LTAuMmgwLjFjMC4zIDAgMC42IDAgMC45IDAuMSAwLjQtMC4xIDAuNyAwIDEgMC4xLTAuMSAwLTAuMSAwIDAgMHoiIGZpbGw9IiNDNjg2MjAiIHAtaWQ9IjkwODgiPjwvcGF0aD48cGF0aCBkPSJNNjQwLjcgNTYzLjljMy4yLTEuOCA1LjgtMC4zIDUuOCAzLjNsMC4yIDUzLjFjMCAzLjctMi42IDguMS01LjcgMTBsLTQ2IDI2LjVjLTMuMSAxLjgtNS43IDAuMy01LjgtMy4zbC0wLjItNTMuMWMwLTMuNiAyLjYtOC4xIDUuNy0xMGw0Ni0yNi41eiIgZmlsbD0iI0ZGQ0QyRSIgcC1pZD0iOTA4OSI+PC9wYXRoPjxwYXRoIGQ9Ik02MTUuMiA2MTYuMWMyLjMtMS40IDQuMi0wLjMgNC4yIDIuNSAwIDIuNy0xLjkgNi00LjIgNy4zLTIuMyAxLjMtNC4yIDAuMi00LjItMi41czEuOS02IDQuMi03LjN6IG0xMS0xOC41YzIuMy0xLjMgNC4yLTAuNSA0LjIgMS44cy0xLjkgNS4zLTQuMiA2LjdsLTIyIDEyLjdjLTIuMyAxLjMtNC4yIDAuNS00LjItMS44czEuOS01LjMgNC4yLTYuN2wyMi0xMi43eiBtLTExLjEtNy4yYzIuMy0xLjQgNC4yLTAuMiA0LjIgMi40IDAgMi43LTEuOSA2LTQuMiA3LjMtMi4zIDEuMy00LjIgMC4yLTQuMi0yLjUgMC0yLjYgMS45LTUuOSA0LjItNy4yeiIgZmlsbD0iI0M2ODYyMCIgcC1pZD0iOTA5MCI+PC9wYXRoPjxwYXRoIGQ9Ik02MjIuMSA2MzBjMC4xLTAuMyAwLjEtMC42IDAuMi0wLjl2LTAuMWMwLjEtMC4zIDAuMi0wLjcgMC40LTEgMC4xLTAuMyAwLjMtMC43IDAuNS0xbDAuNi0wLjlzMC0wLjEgMC4xLTAuMWMwLjItMC4zIDAuNC0wLjUgMC42LTAuNyAwLTAuMSAwLjEtMC4xIDAuMS0wLjEgMC4yLTAuMiAwLjQtMC4zIDAuNS0wLjUgMC4xLTAuMSAwLjItMC4xIDAuMi0wLjIgMC4zLTAuMiAwLjUtMC40IDAuOC0wLjUgMC4zLTAuMiAwLjUtMC4zIDAuOC0wLjQgMCAwIDAuMSAwIDAuMS0wLjEgMC4yLTAuMSAwLjUtMC4xIDAuNy0wLjJoMC44YzAuMiAwIDAuNCAwLjEgMC42IDAuMmwtMTAuMi01LjljLTAuMSAwLTAuMS0wLjEtMC4yLTAuMXMtMC4xLTAuMS0wLjItMC4xSDYxNy4yYy0wLjEgMC0wLjIgMC0wLjQgMC4xLTAuMSAwLTAuMSAwLTAuMiAwLjEgMCAwLTAuMSAwLTAuMSAwLjEtMC4xIDAtMC4xIDAtMC4yIDAuMWwtMC42IDAuM2MtMC4zIDAuMi0wLjUgMC4zLTAuOCAwLjUtMC4xIDAuMS0wLjIgMC4xLTAuMiAwLjItMC4xIDAuMS0wLjIgMC4yLTAuNCAwLjNsLTAuMiAwLjItMC4xIDAuMS0wLjIgMC4yYy0wLjEgMC4xLTAuMiAwLjMtMC4zIDAuNCAwIDAuMS0wLjEgMC4xLTAuMSAwLjIgMCAwIDAgMC4xLTAuMSAwLjFsLTAuMSAwLjFjLTAuMSAwLjEtMC4yIDAuMi0wLjIgMC40LTAuMSAwLjEtMC4xIDAuMi0wLjIgMC40LTAuMSAwLjEtMC4xIDAuMi0wLjIgMC4zLTAuMSAwLjEtMC4xIDAuMi0wLjIgMC40LTAuMSAwLjEtMC4xIDAuMi0wLjIgMC40LTAuMSAwLjEtMC4xIDAuMy0wLjIgMC40LTAuMSAwLjEtMC4xIDAuMy0wLjEgMC40IDAgMC4xIDAgMC4xLTAuMSAwLjJ2MC4yYzAgMC4yLTAuMSAwLjMtMC4xIDAuNSAwIDAuMSAwIDAuMi0wLjEgMC4zdjAuM2MwIDAuMy0wLjEgMC42LTAuMSAwLjggMCAxLjMgMC41IDIuMyAxLjIgMi43bDEwLjIgNS45Yy0wLjgtMC40LTEuMi0xLjQtMS4yLTIuNyAwLTAuMyAwLTAuNiAwLjEtMSAwLjItMC4yIDAuMi0wLjMgMC4zLTAuM3oiIGZpbGw9IiNFOENGQUMiIHAtaWQ9IjkwOTEiPjwvcGF0aD48cGF0aCBkPSJNNjI2LjIgNjIzLjhjMi4zLTEuNCA0LjItMC4zIDQuMiAyLjUgMCAyLjctMS45IDYtNC4yIDcuMy0yLjMgMS4zLTQuMiAwLjItNC4yLTIuNS0wLjEtMi43IDEuOC02IDQuMi03LjN6IiBmaWxsPSIjRkZGRkZGIiBwLWlkPSI5MDkyIj48L3BhdGg+PHBhdGggZD0iTTYzOC4xIDYwNC44YzAuMy0wLjEgMC41LTAuMSAwLjctMC4yaDAuOGMwLjIgMCAwLjQgMC4xIDAuNiAwLjJsLTEwLjItNS45Yy0wLjEgMC0wLjEtMC4xLTAuMi0wLjFzLTAuMS0wLjEtMC4yLTAuMWgtMS4xYy0wLjEgMC0wLjMgMC0wLjQgMC4xLTAuMSAwLTAuMSAwLTAuMiAwLjEtMC4xIDAtMC4xIDAtMC4yIDAuMS0wLjEgMC0wLjEgMC0wLjIgMC4xLTAuMiAwLjEtMC40IDAuMi0wLjcgMC4zbC0yMiAxMi43Yy0wLjMgMC4yLTAuNiAwLjQtMC44IDAuNi0wLjEgMC4xLTAuMiAwLjItMC4zIDAuMi0wLjIgMC4xLTAuMyAwLjMtMC41IDAuNGwtMC4xIDAuMS0wLjQgMC40Yy0wLjEgMC4xLTAuMiAwLjItMC4yIDAuMyAwIDAgMCAwLjEtMC4xIDAuMXYwLjFjLTAuMSAwLjEtMC4yIDAuMy0wLjMgMC40LTAuMSAwLjEtMC4yIDAuMi0wLjIgMC40LTAuMSAwLjEtMC4xIDAuMi0wLjIgMC4zLTAuMSAwLjEtMC4xIDAuMi0wLjIgMC4zLTAuMSAwLjEtMC4xIDAuMi0wLjIgMC4zLTAuMSAwLjEtMC4xIDAuMi0wLjEgMC4zIDAgMC4xLTAuMSAwLjItMC4xIDAuMyAwIDAuMS0wLjEgMC4yLTAuMSAwLjMgMCAwLjEtMC4xIDAuMi0wLjEgMC4zIDAgMC4xLTAuMSAwLjMtMC4xIDAuNHYxYzAgMS4xIDAuNCAxLjggMSAyLjJsMTAuMiA1LjljLTAuNi0wLjQtMS0xLjEtMS0yLjIgMC0wLjMgMC0wLjUgMC4xLTAuOHYtMC4xYzAuMS0wLjMgMC4xLTAuNiAwLjItMC45IDAuMS0wLjMgMC4yLTAuNiAwLjQtMC45IDAuMS0wLjMgMC4zLTAuNiAwLjUtMC45IDAuMi0wLjMgMC40LTAuNiAwLjYtMC44IDAgMCAwLTAuMSAwLjEtMC4xIDAuMi0wLjIgMC40LTAuNSAwLjYtMC43bDAuMS0wLjEgMC41LTAuNWMwLjEtMC4xIDAuMi0wLjIgMC4zLTAuMiAwLjMtMC4yIDAuNS0wLjQgMC44LTAuNmwyMi0xMi43YzAuMy0wLjIgMC42LTAuMyAwLjgtMC40aDAuMXoiIGZpbGw9IiNFOENGQUMiIHAtaWQ9IjkwOTMiPjwvcGF0aD48cGF0aCBkPSJNNjM3LjEgNjA1LjJjMi4zLTEuMyA0LjItMC41IDQuMiAxLjhzLTEuOSA1LjMtNC4yIDYuN2wtMjIgMTIuN2MtMi4zIDEuMy00LjIgMC41LTQuMi0xLjhzMS45LTUuMyA0LjItNi43bDIyLTEyLjd6IiBmaWxsPSIjRkZGRkZGIiBwLWlkPSI5MDk0Ij48L3BhdGg+PHBhdGggZD0iTTYyNy43IDU5Ny41aDAuN2MwLjIgMCAwLjQgMC4xIDAuNiAwLjJsLTEwLjItNS45Yy0wLjEgMC0wLjEtMC4xLTAuMi0wLjFzLTAuMS0wLjEtMC4yLTAuMWgtMS4yYy0wLjEgMC0wLjIgMC0wLjQgMC4xLTAuMSAwLTAuMSAwLTAuMiAwLjEgMCAwLTAuMSAwLTAuMSAwLjEtMC4xIDAtMC4xIDAtMC4yIDAuMWwtMC42IDAuM2MtMC4zIDAuMi0wLjUgMC4zLTAuOCAwLjUtMC4xIDAuMS0wLjIgMC4xLTAuMiAwLjItMC4xIDAuMS0wLjIgMC4yLTAuNCAwLjNsLTAuMiAwLjItMC4xIDAuMS0wLjIgMC4yYy0wLjEgMC4xLTAuMiAwLjMtMC4zIDAuNCAwIDAuMS0wLjEgMC4xLTAuMSAwLjIgMCAwIDAgMC4xLTAuMSAwLjFsLTAuMSAwLjFjLTAuMSAwLjEtMC4yIDAuMi0wLjIgMC40LTAuMSAwLjEtMC4xIDAuMi0wLjIgMC40LTAuMSAwLjEtMC4xIDAuMi0wLjIgMC4zLTAuMSAwLjEtMC4xIDAuMi0wLjIgMC40LTAuMSAwLjEtMC4xIDAuMi0wLjIgMC40LTAuMSAwLjEtMC4xIDAuMy0wLjIgMC40LTAuMSAwLjEtMC4xIDAuMy0wLjEgMC40IDAgMC4xIDAgMC4xLTAuMSAwLjJ2MC4yYzAgMC4yLTAuMSAwLjMtMC4xIDAuNSAwIDAuMSAwIDAuMi0wLjEgMC4zdjAuM2MwIDAuMy0wLjEgMC42LTAuMSAwLjggMCAxLjMgMC41IDIuMyAxLjMgMi43bDEwLjIgNS45Yy0wLjgtMC40LTEuMi0xLjQtMS4zLTIuNyAwLTAuMyAwLTAuNiAwLjEtMXYtMC4yYzAuMS0wLjMgMC4xLTAuNiAwLjItMC45di0wLjFjMC4xLTAuMyAwLjItMC43IDAuNC0xIDAuMS0wLjMgMC4zLTAuNyAwLjUtMWwwLjYtMC45czAtMC4xIDAuMS0wLjFjMC4yLTAuMyAwLjQtMC41IDAuNi0wLjdsMC4xLTAuMWMwLjItMC4yIDAuNC0wLjMgMC41LTAuNSAwLjEtMC4xIDAuMi0wLjEgMC4yLTAuMiAwLjMtMC4yIDAuNS0wLjQgMC44LTAuNSAwLjMtMC4yIDAuNS0wLjMgMC44LTAuNCAwIDAgMC4xIDAgMC4xLTAuMSAwLjUtMC4yIDAuOC0wLjMgMS0wLjN6IiBmaWxsPSIjRThDRkFDIiBwLWlkPSI5MDk1Ij48L3BhdGg+PHBhdGggZD0iTTYyNi4xIDU5OC4xYzIuMy0xLjQgNC4yLTAuMiA0LjIgMi40IDAgMi43LTEuOSA2LTQuMiA3LjMtMi4zIDEuMy00LjIgMC4yLTQuMi0yLjUgMC0yLjYgMS44LTUuOSA0LjItNy4yeiIgZmlsbD0iI0ZGRkZGRiIgcC1pZD0iOTA5NiI+PC9wYXRoPjxwYXRoIGQ9Ik03MTUuMSA1MTIuMmMtMC4xIDAtMC4xIDAgMCAwLTAuMS0wLjEtMC4yLTAuMS0wLjMtMC4yLTAuMSAwLTAuMi0wLjEtMC4zLTAuMUg3MTMuMWMtMC4yIDAtMC4zIDAuMS0wLjUgMC4xLTAuMSAwLTAuMSAwLjEtMC4yIDAuMXMtMC4xIDAtMC4yIDAuMWMtMC4xIDAtMC4yIDAuMS0wLjMgMC4xLTAuMyAwLjEtMC41IDAuMi0wLjggMC40bC00NS45IDI2LjVjLTAuNCAwLjItMC43IDAuNS0xLjEgMC43bC0wLjMgMC4zYy0wLjIgMC4xLTAuMyAwLjMtMC41IDAuNC0wLjEgMC4xLTAuMiAwLjItMC4yIDAuM2wtMC4yIDAuMi0wLjIgMC4yYy0wLjIgMC4yLTAuMyAwLjQtMC41IDAuNi0wLjEgMC4xLTAuMSAwLjItMC4yIDAuMmwtMC4xIDAuMWMwIDAuMS0wLjEgMC4xLTAuMSAwLjItMC4xIDAuMi0wLjIgMC4zLTAuMyAwLjUtMC4xIDAuMi0wLjIgMC4zLTAuMyAwLjV2MC4yYy0wLjEgMC4xLTAuMSAwLjItMC4yIDAuNHMtMC4yIDAuMy0wLjMgMC41Yy0wLjEgMC4yLTAuMSAwLjMtMC4yIDAuNXMtMC4xIDAuMy0wLjIgMC41LTAuMSAwLjQtMC4yIDAuNWMwIDAuMS0wLjEgMC4yLTAuMSAwLjN2MC4xYzAgMC4xIDAgMC4xLTAuMSAwLjItMC4xIDAuMi0wLjEgMC40LTAuMiAwLjcgMCAwLjEgMCAwLjMtMC4xIDAuNHYwLjRjMCAwLjQtMC4xIDAuOC0wLjEgMS4xbDAuMiA1My4xIDUuNCAzLjItNS40LTMuMmMwIDEuOCAwLjcgMy4xIDEuNyAzLjdsMTQuOCA4LjZjLTEtMC42LTEuNy0xLjktMS43LTMuN2wtMC4yLTUzLjFjMC0wLjQgMC0wLjkgMC4xLTEuM3YtMC4yYzAuMS0wLjQgMC4yLTAuOCAwLjMtMS4zdi0wLjFjMC4xLTAuNSAwLjMtMC45IDAuNS0xLjQgMC4yLTAuNSAwLjQtMC45IDAuNy0xLjN2LTAuMWMwLjItMC40IDAuNS0wLjggMC44LTEuMmwwLjEtMC4xYzAuMy0wLjQgMC41LTAuNyAwLjgtMWwwLjItMC4yIDAuNy0wLjcgMC4zLTAuM2MwLjMtMC4zIDAuNy0wLjUgMS4xLTAuN2w0NS45LTI2LjVjMC40LTAuMiAwLjctMC40IDEtMC41IDAuMSAwIDAuMSAwIDAuMi0wLjEgMC4zLTAuMSAwLjYtMC4yIDAuOS0wLjJoMC4xYzAuMyAwIDAuNiAwIDAuOSAwLjEgMC4zIDAuMSAwLjYgMC4yIDAuOCAwLjNsLTE0LjYtOC44eiIgZmlsbD0iI0M2ODYyMCIgcC1pZD0iOTA5NyI+PC9wYXRoPjxwYXRoIGQ9Ik03MjUuOCA1MjEuMmMzLjItMS44IDUuNy0wLjMgNS44IDMuM2wwLjIgNTMuMWMwIDMuNy0yLjYgOC4xLTUuNyAxMGwtNDUuOSAyNi41Yy0zLjIgMS44LTUuOCAwLjMtNS44LTMuM2wtMC4yLTUzLjFjMC0zLjYgMi42LTguMSA1LjctMTBsNDUuOS0yNi41eiIgZmlsbD0iI0ZGQ0QyRSIgcC1pZD0iOTA5OCI+PC9wYXRoPjxwYXRoIGQ9Ik03MTIuMSA1NjFjMi4zLTEuMyA0LjItMC41IDQuMiAxLjhzLTEuOSA1LjMtNC4yIDYuNmwtMjEuOSAxMi43Yy0yLjMgMS4zLTQuMiAwLjUtNC4yLTEuOHMxLjktNS4zIDQuMi02LjdsMjEuOS0xMi42eiBtMC0xNi4zYzIuMy0xLjMgNC4yLTAuNSA0LjIgMS44cy0xLjkgNS4zLTQuMiA2LjdsLTIxLjkgMTIuN2MtMi4zIDEuMy00LjIgMC41LTQuMi0xLjhzMS45LTUuMyA0LjItNi43bDIxLjktMTIuN3oiIGZpbGw9IiNDNjg2MjAiIHAtaWQ9IjkwOTkiPjwvcGF0aD48cGF0aCBkPSJNNzI0LjEgNTY4LjRoMC44YzAuMiAwIDAuNCAwLjEgMC42IDAuMmwtMTAuMi01LjljLTAuMSAwLTAuMS0wLjEtMC4yLTAuMXMtMC4xLTAuMS0wLjItMC4xaC0xLjFjLTAuMSAwLTAuMyAwLTAuNCAwLjEtMC4xIDAtMC4xIDAtMC4yIDAuMS0wLjEgMC0wLjEgMC0wLjIgMC4xLTAuMSAwLTAuMSAwLTAuMiAwLjEtMC4yIDAuMS0wLjQgMC4yLTAuNyAwLjNsLTIxLjkgMTIuN2MtMC4zIDAuMi0wLjYgMC40LTAuOCAwLjYtMC4xIDAuMS0wLjIgMC4yLTAuMyAwLjItMC4yIDAuMS0wLjMgMC4zLTAuNSAwLjRsLTAuMSAwLjFjLTAuMSAwLjEtMC4yIDAuMi0wLjMgMC40bC0wLjMgMC4zLTAuMSAwLjFjLTAuMSAwLjEtMC4yIDAuMy0wLjMgMC40LTAuMSAwLjEtMC4yIDAuMi0wLjIgMC40djAuMWMwIDAuMS0wLjEgMC4yLTAuMSAwLjItMC4xIDAuMS0wLjEgMC4yLTAuMiAwLjMtMC4xIDAuMS0wLjEgMC4yLTAuMiAwLjMgMCAwLjEtMC4xIDAuMi0wLjEgMC4zIDAgMC4xLTAuMSAwLjItMC4xIDAuMyAwIDAuMS0wLjEgMC4yLTAuMSAwLjMgMCAwLjEtMC4xIDAuMi0wLjEgMC4zIDAgMC4xLTAuMSAwLjMtMC4xIDAuNHYxYzAgMSAwLjQgMS44IDEgMi4ybDEwLjIgNS45Yy0wLjYtMC40LTEtMS4xLTEtMi4yIDAtMC4zIDAtMC42IDAuMS0wLjh2LTAuMWMwLjEtMC4zIDAuMS0wLjYgMC4yLTAuOSAwLjEtMC4zIDAuMi0wLjYgMC40LTAuOSAwLjEtMC4zIDAuMy0wLjYgMC41LTAuOSAwLjItMC4zIDAuNC0wLjYgMC42LTAuOGwwLjEtMC4xYzAuMi0wLjIgMC40LTAuNSAwLjYtMC43bDAuMS0wLjEgMC41LTAuNWMwLjEtMC4xIDAuMi0wLjIgMC4zLTAuMiAwLjMtMC4yIDAuNS0wLjQgMC44LTAuNmwyMS45LTEyLjdjMC4zLTAuMiAwLjYtMC4zIDAuOC0wLjQgMC4xIDAgMC4xIDAgMC4yLTAuMSAwIDAuMSAwLjIgMCAwLjUgMHoiIGZpbGw9IiNFOENGQUMiIHAtaWQ9IjkxMDAiPjwvcGF0aD48cGF0aCBkPSJNNzIyLjMgNTY5YzIuMy0xLjMgNC4yLTAuNSA0LjIgMS44cy0xLjkgNS4zLTQuMiA2LjZsLTIxLjkgMTIuN2MtMi4zIDEuMy00LjIgMC41LTQuMi0xLjhzMS45LTUuMyA0LjItNi43bDIxLjktMTIuNnoiIGZpbGw9IiNGRkZGRkYiIHAtaWQ9IjkxMDEiPjwvcGF0aD48cGF0aCBkPSJNNzI0IDU1Mi4xYzAuMSAwIDAuMSAwIDAgMGgwLjhjMC4yIDAgMC40IDAuMSAwLjYgMC4ybC0xMC4yLTUuOWMtMC4xIDAtMC4xLTAuMS0wLjItMC4xcy0wLjEtMC4xLTAuMi0wLjFINzEzLjZjLTAuMSAwLTAuMyAwLTAuNCAwLjEtMC4xIDAtMC4xIDAtMC4yIDAuMS0wLjEgMC0wLjEgMC0wLjIgMC4xLTAuMSAwLTAuMSAwLTAuMiAwLjEtMC4yIDAuMS0wLjQgMC4yLTAuNyAwLjNMNjkwIDU1OS42Yy0wLjMgMC4yLTAuNiAwLjQtMC44IDAuNi0wLjEgMC4xLTAuMiAwLjItMC4zIDAuMi0wLjIgMC4xLTAuMyAwLjMtMC41IDAuNGwtMC4xIDAuMS0wLjQgMC40Yy0wLjEgMC4xLTAuMiAwLjItMC4yIDAuM2wtMC4xIDAuMXYwLjFjLTAuMSAwLjEtMC4yIDAuMy0wLjMgMC40LTAuMSAwLjEtMC4yIDAuMi0wLjIgMC40LTAuMSAwLjEtMC4xIDAuMi0wLjIgMC4zLTAuMSAwLjEtMC4xIDAuMi0wLjIgMC4zLTAuMSAwLjEtMC4xIDAuMi0wLjIgMC4zLTAuMSAwLjEtMC4xIDAuMi0wLjEgMC4zIDAgMC4xLTAuMSAwLjItMC4xIDAuMyAwIDAuMS0wLjEgMC4yLTAuMSAwLjMgMCAwLjEtMC4xIDAuMi0wLjEgMC4zIDAgMC4xLTAuMSAwLjMtMC4xIDAuNHYxYzAgMC41IDAuMSAxIDAuMyAxLjMgMC4yIDAuNCAwLjQgMC42IDAuOCAwLjhsMTAuMiA1LjljLTAuNi0wLjQtMS0xLjEtMS0yLjIgMC0wLjMgMC0wLjYgMC4xLTAuOHYtMC4xYzAuMS0wLjMgMC4xLTAuNiAwLjItMC45IDAuMS0wLjMgMC4yLTAuNiAwLjQtMC45IDAuMS0wLjMgMC4zLTAuNiAwLjUtMC45IDAuMi0wLjMgMC40LTAuNiAwLjYtMC44bDAuMS0wLjFjMC4yLTAuMiAwLjQtMC41IDAuNi0wLjdsMC4xLTAuMSAwLjUtMC41YzAuMS0wLjEgMC4yLTAuMiAwLjMtMC4yIDAuMy0wLjIgMC41LTAuNCAwLjgtMC42bDIxLjktMTIuN2MwLjMtMC4yIDAuNi0wLjMgMC44LTAuNCAwLjEgMCAwLjEgMCAwLjItMC4xIDAuMiAwLjEgMC40IDAgMC42IDB6IiBmaWxsPSIjRThDRkFDIiBwLWlkPSI5MTAyIj48L3BhdGg+PHBhdGggZD0iTTcyMi4zIDU1Mi43YzIuMy0xLjMgNC4yLTAuNSA0LjIgMS44cy0xLjkgNS4zLTQuMiA2LjdsLTIxLjkgMTIuN2MtMi4zIDEuMy00LjIgMC41LTQuMi0xLjhzMS45LTUuMyA0LjItNi43bDIxLjktMTIuN3oiIGZpbGw9IiNGRkZGRkYiIHAtaWQ9IjkxMDMiPjwvcGF0aD48L3N2Zz4=;verticalAlign=top;labelPosition=center;verticalLabelPosition=bottom;align=center;" parent="1" vertex="1">
          <mxGeometry x="117" y="983" width="80" height="80" as="geometry" />
        </mxCell>
        <mxCell id="hd7GLlxzBQkCQPeTxtlU-43" style="edgeStyle=orthogonalEdgeStyle;rounded=0;orthogonalLoop=1;jettySize=auto;html=1;dashed=1;" parent="1" edge="1">
          <mxGeometry relative="1" as="geometry">
            <mxPoint x="428" y="1183" as="targetPoint" />
            <mxPoint x="588" y="1023" as="sourcePoint" />
            <Array as="points">
              <mxPoint x="429" y="1023" />
            </Array>
          </mxGeometry>
        </mxCell>
        <mxCell id="hd7GLlxzBQkCQPeTxtlU-47" style="edgeStyle=orthogonalEdgeStyle;rounded=0;orthogonalLoop=1;jettySize=auto;html=1;dashed=1;" parent="1" source="hd7GLlxzBQkCQPeTxtlU-13" edge="1">
          <mxGeometry relative="1" as="geometry">
            <mxPoint x="753" y="1183" as="targetPoint" />
          </mxGeometry>
        </mxCell>
        <mxCell id="hd7GLlxzBQkCQPeTxtlU-54" style="edgeStyle=orthogonalEdgeStyle;rounded=0;orthogonalLoop=1;jettySize=auto;html=1;dashed=1;" parent="1" source="hd7GLlxzBQkCQPeTxtlU-13" edge="1">
          <mxGeometry relative="1" as="geometry">
            <mxPoint x="593" y="1183" as="targetPoint" />
          </mxGeometry>
        </mxCell>
        <mxCell id="hd7GLlxzBQkCQPeTxtlU-13" value="DataWorks" style="shape=image;aspect=fixed;image=data:image/svg+xml,PD94bWwgdmVyc2lvbj0iMS4wIiBzdGFuZGFsb25lPSJubyI/PjwhRE9DVFlQRSBzdmcgUFVCTElDICItLy9XM0MvL0RURCBTVkcgMS4xLy9FTiIgImh0dHA6Ly93d3cudzMub3JnL0dyYXBoaWNzL1NWRy8xLjEvRFREL3N2ZzExLmR0ZCI+PHN2ZyB0PSIxNjkyNjA4NjU1MzQ5IiBjbGFzcz0iaWNvbiIgdmlld0JveD0iMCAwIDEwMjQgMTAyNCIgdmVyc2lvbj0iMS4xIiB4bWxucz0iaHR0cDovL3d3dy53My5vcmcvMjAwMC9zdmciIHAtaWQ9IjUyNDQiIHhtbG5zOnhsaW5rPSJodHRwOi8vd3d3LnczLm9yZy8xOTk5L3hsaW5rIiB3aWR0aD0iMjAwIiBoZWlnaHQ9IjIwMCI+PHBhdGggZD0iTTM2OCA0MDhWODMyaC05NlYzNTJ6IiBmaWxsPSIjRkY2QTAwIiBwLWlkPSI1MjQ1Ij48L3BhdGg+PHBhdGggZD0iTTI3MiAzNTJsOTYgNTYgMjg4LTE4MC4wNTMzMzNWMTEyek04NDggMjI0bC05NiA2NHYxMTJsOTYtNjR6IiBmaWxsPSIjRkY2QTAwIiBvcGFjaXR5PSIuNSIgcC1pZD0iNTI0NiI+PC9wYXRoPjxwYXRoIGQ9Ik02NTYgMTEyVjgzMmg5NlYxNjh6TTg0OCAyMjR2NDk2aDk2VjI4MHoiIGZpbGw9IiNGRjZBMDAiIHAtaWQ9IjUyNDciPjwvcGF0aD48cGF0aCBkPSJNODAgMjQwbDk2IDU2IDI4OC0xODAuMDUzMzMzVjB6IiBmaWxsPSIjRkY2QTAwIiBvcGFjaXR5PSIuNSIgcC1pZD0iNTI0OCI+PC9wYXRoPjxwYXRoIGQ9Ik00NjQgMTE1LjkyNTMzM1Y5NjBoOTZWNTZMNDY0IDB6TTE3NiAyOTZ2NDMyaC05NlYyNDB6IiBmaWxsPSIjRkY2QTAwIiBwLWlkPSI1MjQ5Ij48L3BhdGg+PHBhdGggZD0iTTEyOCA3NjhhNjQgNjQgMCAxIDEgMC0xMjggNjQgNjQgMCAwIDEgMCAxMjh6TTg5NiA3NjhhNjQgNjQgMCAxIDEgMC0xMjggNjQgNjQgMCAwIDEgMCAxMjh6TTMyMCA4OTZhNjQgNjQgMCAxIDEgMC0xMjggNjQgNjQgMCAwIDEgMCAxMjh6TTcwNi4xOTczMzMgOTA0LjEwNjY2N2E2Ny40OTg2NjcgNjcuNDk4NjY3IDAgMSAxIDAtMTM0Ljk5NzMzNCA2Ny40OTg2NjcgNjcuNDk4NjY3IDAgMCAxIDAgMTM1LjAxODY2N3pNNTE0LjE5NzMzMyAxMDI0YTY3LjQ5ODY2NyA2Ny40OTg2NjcgMCAxIDEgMC0xMzQuOTk3MzMzIDY3LjQ5ODY2NyA2Ny40OTg2NjcgMCAwIDEgMCAxMzQuOTk3MzMzeiIgZmlsbD0iI0ZGNkEwMCIgcC1pZD0iNTI1MCI+PC9wYXRoPjwvc3ZnPg==;verticalAlign=top;labelPosition=center;verticalLabelPosition=bottom;align=center;" parent="1" vertex="1">
          <mxGeometry x="563" y="993" width="60" height="60" as="geometry" />
        </mxCell>
        <mxCell id="hd7GLlxzBQkCQPeTxtlU-42" value="" style="edgeStyle=orthogonalEdgeStyle;rounded=0;orthogonalLoop=1;jettySize=auto;html=1;" parent="1" source="hd7GLlxzBQkCQPeTxtlU-14" target="hd7GLlxzBQkCQPeTxtlU-40" edge="1">
          <mxGeometry relative="1" as="geometry" />
        </mxCell>
        <mxCell id="hd7GLlxzBQkCQPeTxtlU-14" value="Spark计算引擎" style="shape=image;aspect=fixed;image=data:image/svg+xml,PD94bWwgdmVyc2lvbj0iMS4wIiBzdGFuZGFsb25lPSJubyI/PjwhRE9DVFlQRSBzdmcgUFVCTElDICItLy9XM0MvL0RURCBTVkcgMS4xLy9FTiIgImh0dHA6Ly93d3cudzMub3JnL0dyYXBoaWNzL1NWRy8xLjEvRFREL3N2ZzExLmR0ZCI+PHN2ZyB0PSIxNjkyNjEwOTQzNTgzIiBjbGFzcz0iaWNvbiIgdmlld0JveD0iMCAwIDEwMjQgMTAyNCIgdmVyc2lvbj0iMS4xIiB4bWxucz0iaHR0cDovL3d3dy53My5vcmcvMjAwMC9zdmciIHAtaWQ9IjM3MzE0IiB4bWxuczp4bGluaz0iaHR0cDovL3d3dy53My5vcmcvMTk5OS94bGluayIgd2lkdGg9IjIwMCIgaGVpZ2h0PSIyMDAiPjxwYXRoIGQ9Ik00NTYuNDg4Mjg4IDExLjc0MDg1NmMtMTcuNzE3NTExIDAuNTQxOTQ3LTM1LjIyNjU4MSA4Ljk2Mjk3Ni00OS44NTkxNjIgMjUuMjIxMzk4YTE0OS43ODU5MjUgMTQ5Ljc4NTkyNSAwIDAgMC0yMC41NTIzMTMgMzAuMDk4OTI1Yy0xNC43OTkzMzMgMjcuODA2MDcxLTE3LjcxNzUxMSA1OC45ODg4OTEtMjMuMTc4Njc0IDg5LjMzNzk0NmEyMzAwNy43NTE4MSAyMzAwNy43NTE4MSAwIDAgMC0zMC4yNjU2NzggMTcwLjM3OTkyN2MtMS4xMjU1ODMgNi42NzAxMjItNC4wMDIwNzMgOS40NjMyMzUtMTAuMTcxOTM2IDExLjM4MDg5NUMyNDguNzk3MzY2IDM2MS4zMzg2MjEgMTc1LjAwOTE0MiAzODQuNDMzOTE4IDEwMS42Mzc4MDEgNDA4LjM2Mjk4MWEyMDMuMTg4NTg5IDIwMy4xODg1ODkgMCAwIDAtNDYuNDQwNzI0IDIxLjA5NDI2Yy00My40MzkxNjkgMjcuNzIyNjk0LTQ5Ljg1OTE2MSA3My4wNzk1MjMtMTcuMzAwNjI4IDExMi45NzUxOSAxNC40MjQxMzkgMTcuNTkyNDQ3IDMyLjkzMzcyNyAyOS44MDcxMDcgNTMuNTI3NzI4IDM5LjAyMDIxNCA0NS44NTcwODggMjAuNDI3MjQ4IDkxLjc5NzU1MyA0MC42ODc3NDQgMTM3LjU3MTI2NSA2MS4yODE3NDUgMC43OTIwNzcgMC40MTY4ODMgMS41MDA3NzcgMC41NDE5NDcgMi4yMDk0NzggMC43OTIwNzdoLTAuMTY2NzUzbDU0LjQ0NDg3IDIyLjMwMzIyYzAgMC45NTg4MyAwLjA4MzM3NyAxLjg3NTk3MiAwIDMuMDQzMjQzLTguMzM3NjUyIDg0LjYyNzE3Mi0xNi4yNTg0MjIgMTY5LjM3OTQwOS0yNC4xNzkxOTIgMjU0LjA4OTk1Ny0xLjY2NzUzIDE3LjQ2NzM4Mi0wLjUwMDI1OSAzNC42NDI5NDYgNS41ODYyMjcgNTEuMjc2NTYyIDEzLjIxNTE3OSAzNi4yNjg3ODggNDQuMzk3OTk5IDQ3Ljg1ODEyNSA3OC40MTU2MjEgMjkuMjIzNDcyIDE1LjUwODAzMy04LjUwNDQwNSAyNy43NjQzODMtMjAuNzE5MDY2IDM5LjA2MTkwMS0zNC4xMDA5OTggNTcuMTk2Mjk1LTY3LjY2MDA0OSAxMTQuNDc1OTY4LTEzNS4yMzY3MjIgMTcxLjQ2MzgyMi0yMDMuMTA1MjEzIDQuNjI3Mzk3LTUuNTQ0NTM5IDguNTQ2MDk0LTYuMjUzMjM5IDE1LjEzMjgzOS00LjA4NTQ1IDE0LjU0OTIwMyA0Ljg3NzUyNyAyOS4wNTY3MTkgOS42Mjk5ODkgNDMuNTY0MjM0IDE0LjQ2NTgyN2gwLjA0MTY4OGMwLjgzMzc2NSAwLjUwMDI1OSAxLjg3NTk3MiAwLjgzMzc2NSAzLjA0MzI0MyAxLjI1MDY0OGw1LjkxOTczMyAxLjc1MDkwN2M1Mi4wMjY5NTEgMTcuMzQyMzE3IDExMS43MjQ1NDIgMzIuMzA4NDAzIDE2My43OTMxODIgNDkuNjA5MDMyIDE2LjY3NTMwNSA1LjUwMjg1MSAyNS45MzAwOTkgNi44MzY4NzUgNDMuNTY0MjM0IDQuMDg1NDUgMTIuOTY1MDQ5LTIuMDAxMDM3IDI0LjY3OTQ1MS0yLjU4NDY3MiAzNC41MTc4ODEtOS44Mzg0MyAyNS4wOTYzMzQtMTMuNzU3MTI2IDQxLjQ3OTgyMS0zOS44OTU2NjcgNDEuMTg4MDAzLTcwLjExOTY1Ny0wLjIwODQ0MS0xNy44MDA4ODgtNi40MTk5OTItMzMuODkyNTU3LTE0LjU5MDg5Mi00OS40NDIyNzktMzQuMTg0Mzc1LTY0Ljg2NjkzNi02OC4yNDM2ODUtMTI5Ljc3NTU2LTEwMi41OTQ4MTMtMTk0LjUxNzQzLTMuMjUxNjg0LTYuMTY5ODYzLTMuMTY4MzA4LTEwLjEzMDI0OCAxLjU0MjQ2Ni0xNS42MzMwOTkgNTcuNTcxNDktNjcuMzI2NTQzIDExNC44OTI4NS0xMzQuOTAzMjE2IDE3Mi4yOTc1ODctMjAyLjM5NjUxMiAxMS4zMzkyMDctMTMuMzQwMjQ0IDIxLjM4NjA3OC0yNy40MzA4NzYgMjcuMjIyNDM1LTQ0LjEwNjE4MSAxMi44Mzk5ODUtMzYuNjAyMjk0LTMuNzUxOTQ0LTY1LjQ1MDU3MS00MS42ODgyNjItNzIuNTc5MjY0YTExNi4wMTg0MzMgMTE2LjAxODQzMyAwIDAgMC01MS40ODUwMDQgMi44NzY0OWMtODIuMjkyNjI5IDIxLjcxOTU4NS0xNjQuNTQzNTcgNDMuMzk3NDgxLTI0Ni43MTExMzQgNjUuNDUwNTcxLTcuMjk1NDQ2IDEuOTU5MzQ4LTEwLjgzODk0OCAwLjYyNTMyNC0xNC43OTkzMzQtNi4wMDMxMDlhMTQ3MTkuMjkxNTU1IDE0NzE5LjI5MTU1NSAwIDAgMC0xMDAuOTI3MjgyLTE2Ny41MDM0MzcgMTkyLjE4Mjg4OCAxOTIuMTgyODg4IDAgMCAwLTI3LjE4MDc0Ny0zNS4zOTMzMzVjLTE1LjQ2NjM0NS0xNS40MjQ2NTctMzMuNDMzOTg2LTIyLjg4Njg1Ni01MS4xNTE0OTctMjIuMzQ0OTA4TDQ1Ni40ODgyODggMTEuNzQwODU2eiBtNy4yMTIwNjkgMTU0LjQxMzMyMmEyNC42Nzk0NTEgMjQuNjc5NDUxIDAgMCAxIDcuODc5MDgxIDguNzk2MjI0YzM2LjI2ODc4OCA2MC4yODEyMjcgNzIuNjIwOTUyIDEyMC40NzkwNzcgMTA4Ljc2NDY3NiAxODAuODQzNjggMi45MTgxNzggNC45MTkyMTUgNS42Mjc5MTUgNi42NzAxMjIgMTEuNTQ3NjQ5IDUuMDQ0MjggNjMuNTc0Ni0xNy4wOTIxODcgMTI3LjIzMjU3Ni0zMy44OTI1NTcgMTkwLjg5MDU1MS01MC43MzQ2MTUgMTUuMjk5NTkyLTQuMDg1NDUgMzAuNjQwODczLTguMDQ1ODM1IDQ1Ljk4MjE1My0xMi4wNDc5MDhhMTYuNjMzNjE3IDE2LjYzMzYxNyAwIDAgMS00LjE2ODgyNiA4LjMzNzY1M2MtNTIuNDg1NTIyIDYxLjY5ODYyOC0xMDQuODg3NjY3IDEyMy40ODA2MzItMTU3LjUzOTk0MiAxODUuMDEyNTA3LTQuNTg1NzA5IDUuNDE5NDc0LTUuMDAyNTkxIDkuMTcxNDE4LTEuNjY3NTMgMTUuNDI0NjU3IDM5LjA2MTkwMiA3NS4xNjM5MzYgNzMuNzA0ODQ3IDEzNy45NDY0NTkgMTA0LjEzNzI3OCAxOTguNDM2MTI3bC0xNTQuMDc5ODE2LTQyLjQ4MDMzOWMtMjIuNDI4Mjg1LTcuNTAzODg3LTQ0Ljg5ODI1OC0xNC45MjQzOTgtNjcuMzI2NTQ0LTIyLjQ2OTk3My02Ljc5NTE4Ny0yLjI5Mjg1NC0xMC40MjIwNjYtMS4yNTA2NDgtMTUuMDA3Nzc0IDQuMTY4ODI2LTUyLjAyNjk1MSA2Mi4wMzIxMzQtMTA0LjM4NzQwOCAxMjMuODE0MTM4LTE1Ni43MDYxNzcgMTg1LjY3OTUxOWExNi41OTE5MjggMTYuNTkxOTI4IDAgMCAxLTcuNTAzODg3IDUuNTAyODVjMS40NTkwODktMTUuNzU4MTYzIDIuODM0ODAyLTMxLjU1ODAxNCA0LjMzNTU3OS00Ny4zNTc4NjUgNi4yMTE1NTEtNjUuNTMzOTQ4IDEyLjM4MTQxNC0xMzEuMDY3ODk2IDE4LjgwMTQwNi0xOTYuNjAxODQ0LTEuMjUwNjQ4LTEzLjI1Njg2NyA0Ljg3NzUyNy0xNi44ODM3NDYtMTMuNDIzNjItMjIuNzIwMTAzLTYyLjI0MDU3NS0yNC43MjExMzktMTM5LjQ4ODkyNS01NS4wNzAxOTQtMjAwLjc3MDY3LTc5LjQxNjEzOWEyNC44MDQ1MTYgMjQuODA0NTE2IDAgMCAxIDEwLjAwNTE4My01LjU4NjIyN2M3NC45MTM4MDctMjMuNzYyMzA5IDE0OS44NjkzMDItNDcuNTI0NjE5IDIyNC44NjY0ODUtNzEuMDc4NDg3IDUuMjk0NDA5LTEuNjY3NTMgOC4yOTU5NjQtMy44MzUzMiA4Ljc5NjIyNC05LjcxMzM2NSAwLjU0MTk0Ny02LjE2OTg2MyAyLjA4NDQxMy0xMi4yNTYzNDkgMy4xNjgzMDgtMTguMzg0NTIzIDEwLjA0Njg3MS01Ni44MjExMDEgMjAuMTM1NDMxLTExMy42NDIyMDIgMzAuMjY1Njc4LTE3MC40MjE2MTYgMi44MzQ4MDItMTYuMDkxNjY5IDUuODM2MzU3LTMyLjE0MTY1IDguNzU0NTM1LTQ4LjIzMzMxOXoiIHAtaWQ9IjM3MzE1Ij48L3BhdGg+PC9zdmc+;verticalAlign=top;labelPosition=center;verticalLabelPosition=bottom;align=center;" parent="1" vertex="1">
          <mxGeometry x="643" y="1043" width="60" height="60" as="geometry" />
        </mxCell>
        <mxCell id="hd7GLlxzBQkCQPeTxtlU-15" value="数据推送" style="shape=image;aspect=fixed;image=data:image/svg+xml,PD94bWwgdmVyc2lvbj0iMS4wIiBzdGFuZGFsb25lPSJubyI/PjwhRE9DVFlQRSBzdmcgUFVCTElDICItLy9XM0MvL0RURCBTVkcgMS4xLy9FTiIgImh0dHA6Ly93d3cudzMub3JnL0dyYXBoaWNzL1NWRy8xLjEvRFREL3N2ZzExLmR0ZCI+PHN2ZyB0PSIxNjkyNjEwODIyNDE5IiBjbGFzcz0iaWNvbiIgdmlld0JveD0iMCAwIDEwMjQgMTAyNCIgdmVyc2lvbj0iMS4xIiB4bWxucz0iaHR0cDovL3d3dy53My5vcmcvMjAwMC9zdmciIHAtaWQ9IjM0NTE3IiB4bWxuczp4bGluaz0iaHR0cDovL3d3dy53My5vcmcvMTk5OS94bGluayIgd2lkdGg9IjIwMCIgaGVpZ2h0PSIyMDAiPjxwYXRoIGQ9Ik02MTguNzEzIDc4Ni4yMTFjOC4xODkgMCAxNi4zNzktMy4xMjQgMjIuNjI3LTkuMzczIDEyLjQ5Ny0xMi40OTYgMTIuNDk3LTMyLjc1OCAwLTQ1LjI1NEw1MzUuOTAyIDYyNi4xNDVjLTAuMTA1LTAuMTA1LTAuMjE0LTAuMjAxLTAuMzItMC4zMDQtMC4xMzgtMC4xMzUtMC4yNzktMC4yNjctMC40MTktMC4zOTlhMzIuMTM1IDMyLjEzNSAwIDAgMC0xLjM0Ny0xLjE5OGMtMC4wNzQtMC4wNjItMC4xNDUtMC4xMjctMC4yMi0wLjE4OWEzMS4zNDMgMzEuMzQzIDAgMCAwLTEuNzI3LTEuMzIyYy0wLjA3NS0wLjA1NC0wLjE1MS0wLjEwNS0wLjIyNy0wLjE1OGEzMS43OCAzMS43OCAwIDAgMC04LjMyOC00LjE4NSAzMS45NDcgMzEuOTQ3IDAgMCAwLTQuODg4LTEuMTkzIDMxLjY2NSAzMS42NjUgMCAwIDAtMi4xLTAuMjc4bC0wLjA3OC0wLjAwNmEzMS41NzMgMzEuNTczIDAgMCAwLTEuOTkyLTAuMTE2Yy0wLjE3OC0wLjAwNS0wLjM1Ni0wLjAxLTAuNTM0LTAuMDEzYTMxLjYzOSAzMS42MzkgMCAwIDAtMi4wNDMgMC4wM2MtMC4wNTcgMC4wMDMtMC4xMTMgMC4wMDktMC4xNyAwLjAxMi0wLjY1MyAwLjAzNi0xLjMwNCAwLjA5Ni0xLjk1NCAwLjE3MS0wLjEzNyAwLjAxNi0wLjI3NSAwLjAzMS0wLjQxMiAwLjA0OWEzMi4xNSAzMi4xNSAwIDAgMC00LjI2NyAwLjg1MWwtMC4xODkgMC4wNTFhMzEuODM2IDMxLjgzNiAwIDAgMC04LjM0NiAzLjY3M2wtMC4xODggMC4xMTdhMzEuOTQzIDMxLjk0MyAwIDAgMC0zLjkwNiAyLjkyYy0wLjU0NSAwLjQ3Ni0xLjA4MiAwLjk2Ni0xLjYwMiAxLjQ4NWwtMC4wMTkgMC4wMi0xMDUuNDIgMTA1LjQyYy0xMi40OTcgMTIuNDk2LTEyLjQ5NyAzMi43NTggMCA0NS4yNTQgMTIuNDk3IDEyLjQ5OCAzMi43NTggMTIuNDk4IDQ1LjI1NSAwbDUwLjgxMS01MC44MTFWOTI5Ljk0YzAgMTcuNjczIDE0LjMyNyAzMiAzMiAzMiAxNy42NzMgMCAzMi0xNC4zMjcgMzItMzJWNzI2LjAyN2w1MC44MTIgNTAuODExYzYuMjUgNi4yNDkgMTQuNDM5IDkuMzczIDIyLjYyOSA5LjM3M3pNNTUxLjEyMSA0NzEuNTY0YTMyIDMyIDAgMCAwIDQ3Ljg1NiAyLjY0N0w3OTIuNTA0IDI3OC40NWMxMi40MjUtMTIuNTY4IDEyLjMwOS0zMi44MjktMC4yNi00NS4yNTQtMTIuNTY4LTEyLjQyNS0zMi44MjktMTIuMzEtNDUuMjU0IDAuMjZMNTc4Ljg4OCA0MDMuNSA0NzMuMTg2IDI2OS44NDhhMzEuOTk4IDMxLjk5OCAwIDAgMC0yMy4xNDQtMTIuMDkgMzEuOTc0IDMxLjk3NCAwIDAgMC0yNC40NDYgOS4xNzZMMjMyLjg5NyA0NTcuMzE4Yy0xMi41NzIgMTIuNDIxLTEyLjY5NCAzMi42ODItMC4yNzMgNDUuMjU0IDYuMjYgNi4zMzYgMTQuNTEgOS41MSAyMi43NjUgOS41MSA4LjEyNSAwIDE2LjI1Mi0zLjA3NSAyMi40ODktOS4yMzZsMTY3LjI3Ny0xNjUuMjY3IDEwNS45NjYgMTMzLjk4NXoiIHAtaWQ9IjM0NTE4IiBmaWxsPSIjMDhhNmY4Ij48L3BhdGg+PHBhdGggZD0iTTc1Ni42OTEgNjMuMzA3SDI3MC44NDVjLTk1LjE2NCAwLTE3Mi41ODUgNzcuNDIxLTE3Mi41ODUgMTcyLjU4NHY0ODguMWMwIDk1LjE2NCA3Ny40MjEgMTcyLjU4NSAxNzIuNTg1IDE3Mi41ODVoMTE1LjIzYzE3LjY3MyAwIDMyLTE0LjMyNyAzMi0zMnMtMTQuMzI3LTMyLTMyLTMyaC0xMTUuMjNjLTU5Ljg3NCAwLTEwOC41ODUtNDguNzExLTEwOC41ODUtMTA4LjU4NXYtNDg4LjFjMC01OS44NzQgNDguNzExLTEwOC41ODQgMTA4LjU4NS0xMDguNTg0aDQ4NS44NDdjNTkuODczIDAgMTA4LjU4NCA0OC43MTEgMTA4LjU4NCAxMDguNTg0djQ4OC4xYzAgNTkuODc0LTQ4LjcxMSAxMDguNTg1LTEwOC41ODQgMTA4LjU4NUg2MzkuMDI3Yy0xNy42NzMgMC0zMiAxNC4zMjctMzIgMzJzMTQuMzI3IDMyIDMyIDMyaDExNy42NjRjOTUuMTYzIDAgMTcyLjU4NC03Ny40MjEgMTcyLjU4NC0xNzIuNTg1di00ODguMWMwLTk1LjE2My03Ny40MjEtMTcyLjU4NC0xNzIuNTg0LTE3Mi41ODR6IiBwLWlkPSIzNDUxOSIgZmlsbD0iIzA4YTZmOCI+PC9wYXRoPjwvc3ZnPg==;verticalAlign=top;labelPosition=center;verticalLabelPosition=bottom;align=center;" parent="1" vertex="1">
          <mxGeometry x="943" y="1313" width="60" height="60" as="geometry" />
        </mxCell>
        <mxCell id="hd7GLlxzBQkCQPeTxtlU-16" value="数据分析" style="shape=image;aspect=fixed;image=data:image/svg+xml,PD94bWwgdmVyc2lvbj0iMS4wIiBzdGFuZGFsb25lPSJubyI/PjwhRE9DVFlQRSBzdmcgUFVCTElDICItLy9XM0MvL0RURCBTVkcgMS4xLy9FTiIgImh0dHA6Ly93d3cudzMub3JnL0dyYXBoaWNzL1NWRy8xLjEvRFREL3N2ZzExLmR0ZCI+PHN2ZyB0PSIxNjkyNjEwNzY3MzM0IiBjbGFzcz0iaWNvbiIgdmlld0JveD0iMCAwIDEwMjQgMTAyNCIgdmVyc2lvbj0iMS4xIiB4bWxucz0iaHR0cDovL3d3dy53My5vcmcvMjAwMC9zdmciIHAtaWQ9IjMzMzk4IiB4bWxuczp4bGluaz0iaHR0cDovL3d3dy53My5vcmcvMTk5OS94bGluayIgd2lkdGg9IjIwMCIgaGVpZ2h0PSIyMDAiPjxwYXRoIGQ9Ik05MDMgOTI5LjVIMTMyLjVjLTIwLjEgMC0zNi41LTE2LjQtMzYuNS0zNi42VjExOS41YzAtMTMuOCAxMS4yLTI1IDI1LTI1czI1IDExLjIgMjUgMjV2NzYwaDc1N2MxMy44IDAgMjUgMTEuMiAyNSAyNXMtMTEuMiAyNS0yNSAyNXoiIHAtaWQ9IjMzMzk5IiBmaWxsPSIjZWViMTczIj48L3BhdGg+PHBhdGggZD0iTTI0MSA1MzYuN2g1MFY3OTZoLTUwek00MTcuNyA0NTguNWg1MFY3OTZoLTUwek01OTQuMyA1MzYuN2g1MFY3OTZoLTUwek03NzEgNDExaDUwdjM4NWgtNTB6TTI0Ni45IDQ2Ny4yTDIxNyA0MjYuOGwyMTguOS0xNTYuOSAxODUuOCAxMTQuMyAxODIuOC0xNTAuNCAzMi41IDM4LjQtMjExIDE3My42LTE4Ny45LTExNS43eiIgcC1pZD0iMzM0MDAiIGZpbGw9IiNlZWIxNzMiPjwvcGF0aD48cGF0aCBkPSJNNzE1LjIgMTg0LjJsMTk0LjYtMy45LTQzLjkgMTg3IiBwLWlkPSIzMzQwMSIgZmlsbD0iI2VlYjE3MyI+PC9wYXRoPjwvc3ZnPg==;verticalAlign=top;labelPosition=center;verticalLabelPosition=bottom;align=center;" parent="1" vertex="1">
          <mxGeometry x="943" y="993" width="60" height="60" as="geometry" />
        </mxCell>
        <mxCell id="hd7GLlxzBQkCQPeTxtlU-18" value="实时大屏" style="shape=image;aspect=fixed;image=data:image/svg+xml,PD94bWwgdmVyc2lvbj0iMS4wIiBzdGFuZGFsb25lPSJubyI/PjwhRE9DVFlQRSBzdmcgUFVCTElDICItLy9XM0MvL0RURCBTVkcgMS4xLy9FTiIgImh0dHA6Ly93d3cudzMub3JnL0dyYXBoaWNzL1NWRy8xLjEvRFREL3N2ZzExLmR0ZCI+PHN2ZyB0PSIxNjkyNjEwMjE3OTQ0IiBjbGFzcz0iaWNvbiIgdmlld0JveD0iMCAwIDEwMjQgMTAyNCIgdmVyc2lvbj0iMS4xIiB4bWxucz0iaHR0cDovL3d3dy53My5vcmcvMjAwMC9zdmciIHAtaWQ9IjIxNzU2IiB4bWxuczp4bGluaz0iaHR0cDovL3d3dy53My5vcmcvMTk5OS94bGluayIgd2lkdGg9IjIwMCIgaGVpZ2h0PSIyMDAiPjxwYXRoIGQ9Ik01MzIuOTkyIDQ5OC4xNzZjMzEuMjMyLTEwLjc1MiA1Mi4yMjQtNDAuNDQ4IDUyLjIyNC03My43MjggMC02LjE0NC0wLjUxMi0xMS43NzYtMi4wNDgtMTcuNDA4bDE5NS41ODQtMTI0LjQxNi0yNDUuNzYgNDI0Ljk2VjQ5OC4xNzZ6TTQzMS4xMDQgNDA3LjU1MmMtMS4wMjQgNS42MzItMi4wNDggMTEuMjY0LTIuMDQ4IDE3LjQwOCAwIDMzLjI4IDIwLjk5MiA2Mi40NjQgNTIuMjI0IDczLjcyOHYyMjcuODRMMjE5LjEzNiAyNzIuMzg0bDIxMS45NjggMTM1LjE2OHogbTEyMy45MDQtNDQuMDMyYy0xMy44MjQtMTAuNzUyLTMwLjcyLTE2Ljg5Ni00OC4xMjgtMTYuODk2LTE4LjQzMiAwLTM0LjgxNiA2LjE0NC00OC4xMjggMTYuODk2TDI1Mi45MjggMjMxLjkzNmg1MDguNDE2TDU1NS4wMDggMzYzLjUyeiBtMjk1LjkzNi0yMzUuNTJjLTMzLjI4IDAtNjIuNDY0IDIwLjk5Mi03My43MjggNTIuMjI0SDIzNy4wNTZDMjI1Ljc5MiAxNDguOTkyIDE5Ni42MDggMTI4IDE2My4zMjggMTI4Yy00My4wMDggMC03Ny44MjQgMzQuODE2LTc3LjgyNCA3Ny44MjQgMCA0My4wMDggMzQuODE2IDc3LjgyNCA3Ny44MjQgNzcuODI0aDIuMDQ4bDI3Ny41MDQgNDgwLjc2OGMtOS4yMTYgMTMuMzEyLTE0LjMzNiAyOS4xODQtMTQuMzM2IDQ1LjA1NiAwIDQzLjAwOCAzNC44MTYgNzcuODI0IDc3LjgyNCA3Ny44MjQgNDMuMDA4IDAgNzcuODI0LTM0LjgxNiA3Ny44MjQtNzcuODI0IDAtMTkuOTY4LTguMTkyLTM4LjkxMi0yMC40OC01Mi4yMjRsMjczLjkyLTQ3NC42MjRjMy41ODQgMS4wMjQgOC4xOTIgMS4wMjQgMTIuMjg4IDEuMDI0IDQzLjAwOCAwIDc3LjgyNC0zNC44MTYgNzcuODI0LTc3LjgyNCAwLTQyLjQ5Ni0zMy43OTItNzcuODI0LTc2LjgtNzcuODI0eiIgZmlsbD0iI0ZGNkEwMCIgcC1pZD0iMjE3NTciPjwvcGF0aD48L3N2Zz4=;verticalAlign=top;labelPosition=center;verticalLabelPosition=bottom;align=center;" parent="1" vertex="1">
          <mxGeometry x="943" y="1203" width="60" height="60" as="geometry" />
        </mxCell>
        <mxCell id="hd7GLlxzBQkCQPeTxtlU-60" style="edgeStyle=orthogonalEdgeStyle;rounded=0;orthogonalLoop=1;jettySize=auto;html=1;entryX=0.5;entryY=1;entryDx=0;entryDy=0;" parent="1" source="hd7GLlxzBQkCQPeTxtlU-19" target="hd7GLlxzBQkCQPeTxtlU-20" edge="1">
          <mxGeometry relative="1" as="geometry">
            <Array as="points">
              <mxPoint x="694" y="1293" />
              <mxPoint x="694" y="1340" />
              <mxPoint x="803" y="1340" />
            </Array>
          </mxGeometry>
        </mxCell>
        <mxCell id="hd7GLlxzBQkCQPeTxtlU-48" style="edgeStyle=orthogonalEdgeStyle;rounded=0;orthogonalLoop=1;jettySize=auto;html=1;" parent="1" source="hd7GLlxzBQkCQPeTxtlU-20" target="hd7GLlxzBQkCQPeTxtlU-18" edge="1">
          <mxGeometry relative="1" as="geometry" />
        </mxCell>
        <mxCell id="hd7GLlxzBQkCQPeTxtlU-49" style="edgeStyle=orthogonalEdgeStyle;rounded=0;orthogonalLoop=1;jettySize=auto;html=1;entryX=0;entryY=0.5;entryDx=0;entryDy=0;" parent="1" source="hd7GLlxzBQkCQPeTxtlU-20" target="hd7GLlxzBQkCQPeTxtlU-16" edge="1">
          <mxGeometry relative="1" as="geometry" />
        </mxCell>
        <mxCell id="hd7GLlxzBQkCQPeTxtlU-51" style="edgeStyle=orthogonalEdgeStyle;rounded=0;orthogonalLoop=1;jettySize=auto;html=1;entryX=0;entryY=0.75;entryDx=0;entryDy=0;" parent="1" source="hd7GLlxzBQkCQPeTxtlU-20" target="hd7GLlxzBQkCQPeTxtlU-15" edge="1">
          <mxGeometry relative="1" as="geometry" />
        </mxCell>
        <mxCell id="hd7GLlxzBQkCQPeTxtlU-53" style="edgeStyle=elbowEdgeStyle;rounded=0;orthogonalLoop=1;jettySize=auto;html=1;" parent="1" source="hd7GLlxzBQkCQPeTxtlU-20" edge="1">
          <mxGeometry relative="1" as="geometry">
            <mxPoint x="943" y="1123" as="targetPoint" />
          </mxGeometry>
        </mxCell>
        <mxCell id="hd7GLlxzBQkCQPeTxtlU-64" style="edgeStyle=isometricEdgeStyle;rounded=0;orthogonalLoop=1;jettySize=auto;html=1;elbow=vertical;" parent="1" source="hd7GLlxzBQkCQPeTxtlU-20" target="hd7GLlxzBQkCQPeTxtlU-8" edge="1">
          <mxGeometry relative="1" as="geometry">
            <Array as="points">
              <mxPoint x="660" y="1260" />
            </Array>
          </mxGeometry>
        </mxCell>
        <mxCell id="hd7GLlxzBQkCQPeTxtlU-20" value="Hologres" style="shape=image;aspect=fixed;image=data:image/svg+xml,PD94bWwgdmVyc2lvbj0iMS4wIiBzdGFuZGFsb25lPSJubyI/PjwhRE9DVFlQRSBzdmcgUFVCTElDICItLy9XM0MvL0RURCBTVkcgMS4xLy9FTiIgImh0dHA6Ly93d3cudzMub3JnL0dyYXBoaWNzL1NWRy8xLjEvRFREL3N2ZzExLmR0ZCI+PHN2ZyB0PSIxNjkyNjEwMjgzMzcyIiBjbGFzcz0iaWNvbiIgdmlld0JveD0iMCAwIDEwMjQgMTAyNCIgdmVyc2lvbj0iMS4xIiB4bWxucz0iaHR0cDovL3d3dy53My5vcmcvMjAwMC9zdmciIHAtaWQ9IjI0NzM2IiB4bWxuczp4bGluaz0iaHR0cDovL3d3dy53My5vcmcvMTk5OS94bGluayIgd2lkdGg9IjIwMCIgaGVpZ2h0PSIyMDAiPjxwYXRoIGQ9Ik04MTIuOTA2NjY3IDc4My44OTMzMzNsMTIuMjAyNjY2IDEuNjY0Yzk1LjI3NDY2NyAxMy42MTA2NjcgMTMyLjc3ODY2NyAzMy43MDY2NjcgMTQ3LjQxMzMzNCA0OC40OTA2NjcgNy43ODY2NjcgNy44NTA2NjcgOC43ODkzMzMgMTMuOTk0NjY3IDguNzg5MzMzIDE4LjQ3NDY2NyAwIDI3LjQ1Ni0zNy41MDQgNDguNzA0LTExMS4zODEzMzMgNjMuMTA0bC05LjM4NjY2NyAxLjc3MDY2NmMtNzMuMjM3MzMzIDEzLjIyNjY2Ny0xNzkuMiAxOS45NDY2NjctMzMzLjg4OCAyMS4yNjkzMzR2LTE2OC45NmwyNC4yMzQ2NjcgMC4wNjRjMTA4LjcxNDY2NyAwLjcwNCAxOTQuNjg4IDUuMzMzMzMzIDI2Mi4wMTYgMTQuMTIyNjY2eiBtLTU5NC4xOTczMzQgMHYxNDYuODE2bC0zLjY5MDY2Ni0wLjU3NmMtNTkuMDkzMzMzLTEwLjI0LTEzNS44MjkzMzMtMjkuNjc0NjY3LTE2NC4yMjQtNTkuODQtNi44NDgtNy4yNTMzMzMtOC4wNDI2NjctMTIuNTIyNjY3LTguMTI4LTE2bDAuMDQyNjY2LTEuNzA2NjY2IDAuMDg1MzM0LTAuNzY4YzAuNDI2NjY3LTMuNjkwNjY3IDIuMzQ2NjY3LTkuMDI0IDguMTA2NjY2LTE1LjI1MzMzNGwyLjcwOTMzNC0yLjczMDY2NmMxMi4yNjY2NjctMTEuMDI5MzMzIDMyLjE3MDY2Ny0xOS4zNzA2NjcgNDUuOTMwNjY2LTI0LjIzNDY2NyAyOS4zOTczMzMtMTAuNDEwNjY3IDY4LjkyOC0xOC44MTYgMTE4LjAxNi0yNS4xNzMzMzNsMS4xNTItMC41MzMzMzR6TTQyLjY2NjY2NyAzMDIuMzM2YzMuNDU2IDEuODc3MzMzIDYuOTc2IDMuNjI2NjY3IDEwLjUzODY2NiA1LjMxMmw2LjgwNTMzNCAzLjA3MmM1Ljk5NDY2NyAyLjYyNCAxMi4wOTYgNS4wMzQ2NjcgMTguMjYxMzMzIDcuMjMyIDM3LjM3NiAxMy4zMzMzMzMgNzguODQ4IDI0LjE0OTMzMyAxNDAuNDM3MzMzIDMxLjI5NnYzMjYuODY5MzMzYy02MS4yMDUzMzMgNy4wNC0xMDIuMzU3MzMzIDE2LjI3NzMzMy0xMzkuNDk4NjY2IDI5LjM5NzMzNGEzNzMuMDU2IDM3My4wNTYgMCAwIDAtMTguNjI0IDcuMzE3MzMzbC01LjUwNCAyLjQ1MzMzMy00LjYwOCAyLjE1NDY2Ny0zLjYwNTMzNCAxLjgxMzMzMy00LjIwMjY2NiAyLjE5NzMzNFYzMDIuMzM2eiBtOTM4LjY2NjY2NiAwLjkzODY2N3Y0MTYuMzQxMzMzbC0zLjQ1Ni0xLjgxMzMzMy0zLjg4MjY2Ni0xLjg5ODY2N2EyNTYuODUzMzMzIDI1Ni44NTMzMzMgMCAwIDAtNi45MTItMy4xNTczMzNsLTEuMTczMzM0LTAuNTk3MzM0LTguMzg0LTMuNDk4NjY2LTMuODQtMS40OTMzMzQtOC4wODUzMzMtMi45ODY2NjYtNS40NC0xLjg1Ni0zLjk4OTMzMy0xLjMyMjY2Ny02LjAxNi0xLjg3NzMzM2MtMi43NzMzMzMtMC44NTMzMzMtNS41NjgtMS43MDY2NjctOC4zNjI2NjctMi40OTZsLTEuNjg1MzMzLTAuNDI2NjY3YTM0NC40MDUzMzMgMzQ0LjQwNTMzMyAwIDAgMC05LjgxMzMzNC0yLjY4OGwtNC4zMDkzMzMtMS4wNjY2NjctNy40MDI2NjctMS43NzA2NjYtOC42NC0xLjk2MjY2Ny0xMC4zMjUzMzMtMi4xMzMzMzMtNS4wNTYtMS4wMDI2NjctNy4xMjUzMzMtMS4zNjUzMzMtMTMuMjY5MzM0LTIuMzQ2NjY3LTEwLjc5NDY2Ni0xLjY4NTMzMy05LjYtMS40MDgtNC4zMzA2NjctMC42NC0xMy42NTMzMzMtMS43OTItMS4zODY2NjctMC4yMTMzMzQtNy45Nzg2NjctMC45ODEzMzMtOS40NzItMS4wNjY2NjctOS4yOC0xLjAwMjY2NmMtNDcuMjk2LTQuOTA2NjY3LTEwMS44NjY2NjctOC4xNzA2NjctMTY0LjI2NjY2Ni05Ljc3MDY2N2wtMTMuMzc2LTAuMjk4NjY3LTI0LjQyNjY2Ny0wLjQyNjY2Ni0xOC41Ni0wLjI1Ni0xNi45MTczMzMtMC4xMjgtMjMuNDY2NjY3LTAuMDg1MzM0di0zMDAuMzczMzMzbDIzLjU1Mi0wLjEwNjY2N2MxMzQuODI2NjY3LTEuMTA5MzMzIDIzNy42NTMzMzMtOC4zMiAzMTMuMTczMzMzLTIxLjkwOTMzM2wxNi4yMTMzMzQtMy4wNTA2NjcgNC45OTItMC45ODEzMzMgMC43MDQtMC4xNzA2NjcgOS4wMDI2NjYtMS45MiAxMC4yNC0yLjMyNTMzMyA3LjE0NjY2Ny0xLjc5MiA3Ljg1MDY2Ny0yLjExMiA3LjYxNi0yLjE5NzMzMyA3LjY4LTIuMzQ2NjY3YzUuMTQxMzMzLTEuNjQyNjY3IDEwLjI0LTMuNDEzMzMzIDE1LjI3NDY2Ni01LjMzMzMzM2wwLjIxMzMzNC0wLjEyOGMyLjU2LTAuOTgxMzMzIDUuMTQxMzMzLTEuOTg0IDcuNjgtMy4wNTA2NjdsMC4yMzQ2NjYtMC4wNjQgMy44NC0xLjY0MjY2NyA0LjMzMDY2Ny0xLjkyIDMuNDU2LTEuNiA0LjMzMDY2Ny0yLjA2OTMzMyAzLjMyOC0xLjcwNjY2NyAzLjgxODY2Ni0yLjAyNjY2NnogbS02NTkuOTg5MzMzIDM2NC4xNlYzNTYuNTIyNjY3aC0wLjQ5MDY2N2MyMS43NiAxLjMyMjY2NyA1Ni4xOTIgMi43NzMzMzMgMTAzLjI3NDY2NyA0LjI2NjY2NmwtMC4xNDkzMzMgMzAyLjM3ODY2N2MtMzguMDggMC44OTYtNzAuMTg2NjY3IDIuMzI1MzMzLTEwMi42MTMzMzQgNC4zMDkzMzN6TTg3MC4xMDEzMzMgMTA4LjY3MmwxMC43MzA2NjcgMi4yMTg2NjdDOTI5LjAwMjY2NyAxMjEuMjU4NjY3IDk4MS4zMzMzMzMgMTM5LjU4NCA5ODEuMzMzMzMzIDE3MC4yNGMwIDIzLjQ0NTMzMy00My4xNzg2NjcgNDUuODY2NjY3LTExNS45NDY2NjYgNjAuNDM3MzMzbC03LjEyNTMzNCAxLjQwOGMtNzYuNDU4NjY3IDE0LjM3ODY2Ny0xODUuOTYyNjY3IDIxLjYxMDY2Ny0zMzEuNjA1MzMzIDIyLjA1ODY2N1Y4NS4zMzMzMzNsMzEuMjc0NjY3IDAuMzYyNjY3YzE0My4wNjEzMzMgMi4wOTA2NjcgMjQzLjQ5ODY2NyA5LjUzNiAzMTIuMTcwNjY2IDIyLjk1NDY2N3pNMjIwLjIwMjY2NyA5NC4wOHYxNDYuNjI0Yy01Mi40OC02LjUwNjY2Ny04Ni4zMzYtMTUuMjUzMzMzLTExNC45ODY2NjctMjQuNTk3MzMzbC01LjkzMDY2Ny0yLjA5MDY2Ny02LjkxMi0yLjU2Yy0xNi41MTItNi4zNTczMzMtMzcuNzM4NjY3LTE2LjcyNTMzMy00Ni4wOC0yOS44NDUzMzNsLTAuNTk3MzMzLTAuODk2LTAuNTEyLTAuOTZhMjIuNTA2NjY3IDIyLjUwNjY2NyAwIDAgMS0xLjkyLTQuOTQ5MzM0QTIxLjE4NCAyMS4xODQgMCAwIDEgNDIuNjY2NjY3IDE3MC4yMTg2NjdjMC04LjM4NCAxMC4wMjY2NjctMTkuMDcyIDI3LjU0MTMzMy0yOS4zOTczMzQgMjAuMzA5MzMzLTExLjk0NjY2NyA0OS40MDgtMjIuODA1MzMzIDg2LjQ4NTMzMy0zMi40MDUzMzMgMjIuODY5MzMzLTUuNzYgNDAuMjc3MzMzLTEwLjM4OTMzMyA2My41MDkzMzQtMTQuMzU3MzMzeiIgZmlsbD0iI0ZGNkEwMCIgcC1pZD0iMjQ3MzciPjwvcGF0aD48L3N2Zz4=;verticalAlign=top;labelPosition=center;verticalLabelPosition=bottom;align=center;" parent="1" vertex="1">
          <mxGeometry x="773" y="1244" width="60" height="60" as="geometry" />
        </mxCell>
        <mxCell id="hd7GLlxzBQkCQPeTxtlU-45" style="edgeStyle=orthogonalEdgeStyle;rounded=0;orthogonalLoop=1;jettySize=auto;html=1;entryX=0.5;entryY=0;entryDx=0;entryDy=0;" parent="1" source="hd7GLlxzBQkCQPeTxtlU-40" target="hd7GLlxzBQkCQPeTxtlU-20" edge="1">
          <mxGeometry relative="1" as="geometry" />
        </mxCell>
        <mxCell id="hd7GLlxzBQkCQPeTxtlU-57" style="edgeStyle=orthogonalEdgeStyle;rounded=0;orthogonalLoop=1;jettySize=auto;html=1;" parent="1" source="hd7GLlxzBQkCQPeTxtlU-40" edge="1">
          <mxGeometry relative="1" as="geometry">
            <mxPoint x="863" y="1273" as="targetPoint" />
          </mxGeometry>
        </mxCell>
        <mxCell id="hd7GLlxzBQkCQPeTxtlU-40" value="数仓分层" style="shape=image;aspect=fixed;image=data:image/svg+xml,PD94bWwgdmVyc2lvbj0iMS4wIiBzdGFuZGFsb25lPSJubyI/PjwhRE9DVFlQRSBzdmcgUFVCTElDICItLy9XM0MvL0RURCBTVkcgMS4xLy9FTiIgImh0dHA6Ly93d3cudzMub3JnL0dyYXBoaWNzL1NWRy8xLjEvRFREL3N2ZzExLmR0ZCI+PHN2ZyB0PSIxNjkyNjEyNDEyOTc4IiBjbGFzcz0iaWNvbiIgdmlld0JveD0iMCAwIDEwMjQgMTAyNCIgdmVyc2lvbj0iMS4xIiB4bWxucz0iaHR0cDovL3d3dy53My5vcmcvMjAwMC9zdmciIHAtaWQ9IjM5MTY1IiB4bWxuczp4bGluaz0iaHR0cDovL3d3dy53My5vcmcvMTk5OS94bGluayIgd2lkdGg9IjIwMCIgaGVpZ2h0PSIyMDAiPjxwYXRoIGQ9Ik05NjQuODE2MTE2IDY0MS43NDI0NjNsLTM4OC4xOTgxNjIgMCAwIDE1OC4wOTIyOTUgMzg4LjE5ODE2MiAwYzEzLjczOTE4MSAwIDIwLjYxMTE0OC02Ljg3MDA2NiAyNy40ODAyNjQtMTMuNzQxMDgyIDYuODcxMDE2LTYuODcwMDY2IDEzLjc0MDEzMi0xMy43MzgyMzEgMTMuNzQwMTMyLTI3LjUxOTIyOGwwLTc1LjU3MTY3NWMwLTEzLjczOTE4MS02Ljg2OTExNi0yMC42NTAxMTItMTMuNzQwMTMyLTI3LjUyMDE3OEM5ODUuNDI3MjY0IDY0OC42MTI1MjkgOTc4LjU1NTI5NyA2NDEuNzQyNDYzIDk2NC44MTYxMTYgNjQxLjc0MjQ2M3pNMTgwLjYyMTIzNSAxNTcuOTcwNjUxbDEzMC41NzExNjcgMGMxMy43ODA5OTcgMCAyMC42MTAxOTgtNi43MDg1MDcgMjcuNDc5MzEzLTEzLjYxODQ4NyA2LjkxMTg4MS02Ljg3MTAxNiAxMy43ODA5OTctMTMuNzQxMDgyIDEzLjc4MDk5Ny0yNy41MjExMjlMMzUyLjQ1MjcxMiA0MS4xMzk2MTZjMC02Ljc0OTM3MiAwLTIwLjQ4OTUwMy0xMy43ODA5OTctMjcuMzU4NjE5QzMzMS44MDI1OTkgNi44NzAwNjYgMzI0Ljk3MzM5OCAwIDMxMS4xOTI0MDIgMEwxODAuNjIxMjM1IDBjLTEzLjczOTE4MSAwLTIwLjU3MDI4MyA2Ljg3MDA2Ni0yNy40ODAyNjQgMTMuNzgwOTk3LTYuODY5MTE2IDYuODcwMDY2LTEzLjc0MDEzMiAxMy43NDAxMzItMTMuNzQwMTMyIDI3LjM1ODYxOWwwIDc1LjY5MTQxOWMwIDEzLjc4MDA0NiA2Ljg3MTAxNiAyMC42NTAxMTIgMTMuNzQwMTMyIDI3LjUyMTEyOUMxNjAuMDUxOTAyIDE1MS4yNjMwOTQgMTY2Ljg4MjA1NCAxNTcuOTcwNjUxIDE4MC42MjEyMzUgMTU3Ljk3MDY1MXpNOTY0LjgxNjExNiA0MTkuMTkyODEzbC0zODguMTk4MTYyIDAgMCAxNTguMTMzMTYgMzg4LjE5ODE2MiAwYzEzLjczOTE4MSAwIDIwLjYxMTE0OC02Ljg3MDA2NiAyNy40ODAyNjQtMTMuNzQxMDgyIDYuODcxMDE2LTYuOTA5OTgxIDEzLjc0MDEzMi0xMy43ODAwNDYgMTMuNzQwMTMyLTI3LjUyMDE3OGwwLTc1LjU3MDcyNWMwLTEzLjc4MDk5Ny02Ljg2OTExNi0yMC42NTAxMTItMTMuNzQwMTMyLTI3LjUyMDE3OEM5ODUuNDI3MjY0IDQyNi4xMDM3NDQgOTc4LjU1NTI5NyA0MTkuMTkyODEzIDk2NC44MTYxMTYgNDE5LjE5MjgxM3pNOTkyLjI5NjM3OSAxMy43ODA5OTdDOTg1LjQyNzI2NCA2Ljg3MDA2NiA5NzguNTU1Mjk3IDAgOTY0LjgxNjExNiAwTDQ0MS44MDQ0MzMgMGMtMTMuNzQwMTMyIDAtMjAuNjEwMTk4IDYuODcwMDY2LTI3LjQ4MTIxNCAxMy43ODA5OTctNi44NjkxMTYgNi44NzAwNjYtMTMuNzM4MjMxIDEzLjc0MDEzMi0xMy43MzgyMzEgMjcuMzU4NjE5bDAgNzUuNjkxNDE5YzAgMTMuNzgwMDQ2IDYuODY5MTE2IDIwLjY1MDExMiAxMy43MzgyMzEgMjcuNTIxMTI5IDYuODcxOTY3IDYuOTA5OTgxIDEzLjc0MTA4MiAxMy42MTg0ODcgMjcuNDgxMjE0IDEzLjYxODQ4N2w1MjMuMDExNjgzIDBjMTMuNzM5MTgxIDAgMjAuNjExMTQ4LTYuNzA4NTA3IDI3LjQ4MDI2NC0xMy42MTg0ODcgNi44NzEwMTYtNi44NzEwMTYgMTMuNzQwMTMyLTEzLjc0MTA4MiAxMy43NDAxMzItMjcuNTIxMTI5TDEwMDYuMDM2NTExIDQxLjEzOTYxNkMxMDA2LjAzNjUxMSAzNC4zOTExOTQgOTk5LjE2ODM0NiAyMC42NTAxMTIgOTkyLjI5NjM3OSAxMy43ODA5OTd6TTk2NC44MTYxMTYgMjA2LjE0MTg5MWwtMzg4LjE5ODE2MiAwIDAgMTU4LjEzMjIxIDM4OC4xOTgxNjIgMGMxMy43MzkxODEgMCAyMC42MTExNDgtNi44NzAwNjYgMjcuNDgwMjY0LTEzLjc0MDEzMiA2Ljg3MTAxNi02LjkxMDkzMSAxMy43NDAxMzItMTMuNzgwOTk3IDEzLjc0MDEzMi0yNy41MjExMjlMMTAwNi4wMzY1MTEgMjQ3LjQ0MjExNmMwLTYuODcwMDY2LTYuODY5MTE2LTEzLjc4MDA0Ni0xMy43NDAxMzItMjcuNTIwMTc4Qzk4NS40MjcyNjQgMjEzLjA1MjgyMiA5NzguNTU1Mjk3IDIwNi4xNDE4OTEgOTY0LjgxNjExNiAyMDYuMTQxODkxek0zMDcuMzkzODYxIDcyNy42MTc4MTJjLTQ1Ljk4OTI0MiAwLTkyLjAxODM5OC01LjEzMTg3OS0xMzIuOTE0NzI1LTE1LjM1NTcyMy00MC44OTYzMjctMTAuMjIzODQ0LTc2LjY2MTcyNC0yNS40OTk3MzgtOTcuMTA5NDEzLTM1LjcyNDUzM2wwIDUxLjA4MDI1NmMwIDE1LjM1NjY3NCAxMC4xODI5NzkgMzAuNzEyMzk3IDMwLjYzMTYxOCA0MC45MzgxNDIgMjAuNDQ4NjM5IDE1LjIzNDA3OSA0Ni4wMjkxNTYgMjUuNTAwNjg5IDgxLjc5MzYwNCAzMC42MzE2MTggMzUuODA1MzEyIDUuMDkxMDE0IDc2LjcwMjU4OSAxMC4yMjQ3OTQgMTE3LjU5ODkxNiAxMC4yMjQ3OTQgNDAuODk4MjI3IDAgODEuNzk0NTU0LTUuMTMyODMgMTE3LjU5OTg2Ni0xMC4yMjQ3OTQgMzAuNjMyNTY4LTEwLjI2NDcwOSA2MS4zNDQ5NjUtMjAuNDA4NzI0IDgxLjc5NDU1NC0zMC42MzE2MTggMjAuNDQ2NzM4LTE1LjM1NTcyMyAzMC42NzI0ODMtMjUuNTgxNDY4IDMwLjY3MjQ4My00MC45MzgxNDJsMC01MS4wODAyNTZjLTI1LjU4MjQxOSAxNS4zNTc2MjQtNTYuMjU0OTAxIDI1LjUwMDY4OS05Ny4xNTEyMjggMzUuNzI0NTMzQzM5OS40NTEyMjMgNzIyLjQ4NDk4MiAzNTMuMzgyMTUyIDcyNy42MTc4MTIgMzA3LjM5Mzg2MSA3MjcuNjE3ODEyek0zMDcuMzkzODYxIDYwOS45Nzg5ODFjLTQ1Ljk4OTI0MiAwLTkyLjAxODM5OC01LjAxMDIzNS0xMzIuOTE0NzI1LTE1LjIzNTAyOS00MC44OTYzMjctMTAuMjI0Nzk0LTc2LjY2MTcyNC0yMC40ODk1MDMtOTcuMTA5NDEzLTM1Ljg0NjE3N2wwIDUxLjA4MTIwNmMwIDE1LjM1NjY3NCAxMC4xODI5NzkgMzAuNzEyMzk3IDMwLjYzMTYxOCA0MC45NzcxMDYgMjAuNDQ4NjM5IDE1LjMxNTgwOSA0Ni4wMjkxNTYgMjUuNTgxNDY4IDgxLjc5MzYwNCAzMC43MTIzOTcgMzUuODA1MzEyIDUuMDkyOTE1IDc2LjcwMjU4OSAxMC4yMjY2OTUgMTE3LjU5ODkxNiAxMC4yMjY2OTUgNDAuODk4MjI3IDAgODEuNzk0NTU0LTUuMTMyODMgMTE3LjU5OTg2Ni0xMC4yMjY2OTUgMzAuNjMyNTY4LTEwLjI2Mzc1OSA2MS4zNDQ5NjUtMjAuNDg4NTUzIDgxLjc5NDU1NC0zMC43MTIzOTcgMjAuNDQ2NzM4LTE1LjM1NTcyMyAzMC42NzI0ODMtMjUuNjIwNDMyIDMwLjY3MjQ4My00MC45NzcxMDZsMC01MS4wODEyMDZjLTI1LjU4MjQxOSAxNS4zNTY2NzQtNTYuMjU0OTAxIDI1LjYyMTM4My05Ny4xNTEyMjggMzUuODQ2MTc3QzM5OS40NTEyMjMgNjA0Ljk2Nzc5NiAzNTMuMzgyMTUyIDYwOS45Nzg5ODEgMzA3LjM5Mzg2MSA2MDkuOTc4OTgxek0zMDcuMzkzODYxIDQ5Mi40NTk4OTRjLTQ1Ljk4OTI0MiAwLTkyLjAxODM5OC01LjA5MTAxNC0xMzIuOTE0NzI1LTE1LjM1NTcyMy00MC44OTYzMjctNS4wOTE5NjUtNzYuNjYxNzI0LTIwLjQ0OTU4OS05Ny4xMDk0MTMtMzUuODA1MzEybDAgNTEuMTYxMDM2YzAgMTUuMzU2Njc0IDEwLjE4Mjk3OSAyNS41ODE0NjggMzAuNjMxNjE4IDQwLjg1NjQxMiAyMC40NDg2MzkgMTUuMzU2Njc0IDQ2LjAyOTE1NiAyNS41ODA1MTggODEuNzkzNjA0IDMwLjcxMjM5NyAzNS44MDUzMTIgNS4xMzI4MyA3Ni43MDI1ODkgMTAuMjI0Nzk0IDExNy41OTg5MTYgMTAuMjI0Nzk0IDQwLjg5ODIyNyAwIDg2LjkyNzM4NCAwIDExNy41OTk4NjYtMTAuMjI0Nzk0IDMwLjYzMjU2OC0xMC4yMjQ3OTQgNjEuMzQ0OTY1LTE1LjM1NTcyMyA4MS43OTQ1NTQtMzAuNzEyMzk3IDIwLjQ0NjczOC0xNS4yNzQ5NDQgMzAuNjcyNDgzLTI1LjQ5OTczOCAzMC42NzI0ODMtNDAuODU2NDEybDAtNTEuMTYxMDM2Yy0yNS41ODI0MTkgMTUuMzU1NzIzLTU2LjI1NDkwMSAyNS41ODE0NjgtOTcuMTUxMjI4IDM1LjgwNTMxMkMzOTkuNDUxMjIzIDQ4Ny4zNjg4OCAzNTMuMzgyMTUyIDQ5Mi40NTk4OTQgMzA3LjM5Mzg2MSA0OTIuNDU5ODk0ek01MDYuNzg4MjgxIDMwMy4yOTEyMTljLTIwLjQ0OTU4OS0xNS4zNTY2NzQtNDUuOTg5MjQyLTI1LjU4MDUxOC04MS43OTQ1NTQtMzAuNzEyMzk3LTM1LjgwNTMxMi01LjAxMTE4NS03Ni43MDE2MzktMTAuMTQzMDY1LTExNy41OTk4NjYtMTAuMTQzMDY1LTQwLjg5NjMyNyAwLTgxLjc5MzYwNCA1LjEzMTg3OS0xMTcuNTk4OTE2IDEwLjE0MzA2NS0zNS43NjQ0NDcgNS4xMzI4My02MS4zNDQ5NjUgMTUuMzU2Njc0LTgxLjc5MzYwNCAzMC43MTIzOTdTNzcuMzY5NzIzIDMyOC44NzI2ODcgNzcuMzY5NzIzIDM0NC4yMjkzNjFsMCA0MC44NTY0MTJjMCAxNS4zNTY2NzQgMTAuMTgyOTc5IDI1LjU4MTQ2OCAzMC42MzE2MTggNDAuOTM3MTkyIDIwLjQ0ODYzOSAxNS4yNzU4OTQgNDYuMDI5MTU2IDI1LjQ5OTczOCA4MS43OTM2MDQgMzAuNjMxNjE4IDM1LjgwNTMxMiA1LjA5MTk2NSA3Ni43MDI1ODkgMTAuMjI1NzQ1IDExNy41OTg5MTYgMTAuMjI1NzQ1IDQwLjg5ODIyNyAwIDg2LjkyNzM4NCAwIDExNy41OTk4NjYtMTAuMjI1NzQ1IDMwLjY3MjQ4My0xMC4yNjQ3MDkgNjEuMzQ0OTY1LTE1LjM1NTcyMyA4MS43OTQ1NTQtMzAuNjMxNjE4IDIwLjQ0NjczOC0xNS4zNTU3MjMgMzAuNjcyNDgzLTI1LjU4MDUxOCAzMC42NzI0ODMtNDAuOTM3MTkybDAtNDAuODU2NDEyQzUzNy40NjA3NjQgMzI4Ljg3MjY4NyA1MjcuMjM1MDE5IDMxMy41MTYwMTMgNTA2Ljc4ODI4MSAzMDMuMjkxMjE5eiIgZmlsbD0iIzcwNzA3MCIgcC1pZD0iMzkxNjYiPjwvcGF0aD48L3N2Zz4=;verticalAlign=top;labelPosition=center;verticalLabelPosition=bottom;align=center;" parent="1" vertex="1">
          <mxGeometry x="643" y="1153" width="60" height="60" as="geometry" />
        </mxCell>
        <mxCell id="hd7GLlxzBQkCQPeTxtlU-19" value="实时计算Flink" style="shape=image;aspect=fixed;image=data:image/svg+xml,PD94bWwgdmVyc2lvbj0iMS4wIiBzdGFuZGFsb25lPSJubyI/PjwhRE9DVFlQRSBzdmcgUFVCTElDICItLy9XM0MvL0RURCBTVkcgMS4xLy9FTiIgImh0dHA6Ly93d3cudzMub3JnL0dyYXBoaWNzL1NWRy8xLjEvRFREL3N2ZzExLmR0ZCI+PHN2ZyB0PSIxNjkyNjEwMTIyNzAwIiBjbGFzcz0iaWNvbiIgdmlld0JveD0iMCAwIDEwMjQgMTAyNCIgdmVyc2lvbj0iMS4xIiB4bWxucz0iaHR0cDovL3d3dy53My5vcmcvMjAwMC9zdmciIHAtaWQ9IjE4NzUzIiB4bWxuczp4bGluaz0iaHR0cDovL3d3dy53My5vcmcvMTk5OS94bGluayIgd2lkdGg9IjIwMCIgaGVpZ2h0PSIyMDAiPjxwYXRoIGQ9Ik04OTEuNzMzMzMzIDY2LjEzMzMzM2MzNi4yNjY2NjcgMCA2Ni4xMzMzMzMgMjkuODY2NjY3IDY2LjEzMzMzNCA2Ni4xMzMzMzQgMCAzNi4yNjY2NjctMjkuODY2NjY3IDY2LjEzMzMzMy02Ni4xMzMzMzQgNjYuMTMzMzMzcy02Ni4xMzMzMzMtMjkuODY2NjY3LTY2LjEzMzMzMy02Ni4xMzMzMzNjLTIuMTMzMzMzLTM2LjI2NjY2NyAyNy43MzMzMzMtNjYuMTMzMzMzIDY2LjEzMzMzMy02Ni4xMzMzMzRNMjc5LjQ2NjY2NyA0MzkuNDY2NjY3SDM0LjEzMzMzM2MtOC41MzMzMzMgMC0xNy4wNjY2NjcgNC4yNjY2NjctMjMuNDY2NjY2IDEwLjY2NjY2Ni02LjQgNi40LTEwLjY2NjY2NyAxNC45MzMzMzMtMTAuNjY2NjY3IDIzLjQ2NjY2NyAwIDE5LjIgMTQuOTMzMzMzIDMyIDM0LjEzMzMzMyAzMmgyNDUuMzMzMzM0YzgxLjA2NjY2NyAwIDE0OS4zMzMzMzMtNjQgMTUzLjYtMTQ1LjA2NjY2N0g1NzZjMTQuOTMzMzMzIDM2LjI2NjY2NyA1MS4yIDY0IDkzLjg2NjY2NyA2NCA1NS40NjY2NjcgMCAxMDAuMjY2NjY3LTQ0LjggMTAwLjI2NjY2Ni05OC4xMzMzMzMgMC01NS40NjY2NjctNDQuOC05OC4xMzMzMzMtMTAwLjI2NjY2Ni05OC4xMzMzMzMtNDQuOCAwLTgxLjA2NjY2NyAyNy43MzMzMzMtOTMuODY2NjY3IDY4LjI2NjY2NmgtMTQwLjh2LTQ2LjkzMzMzM2MwLTQ2LjkzMzMzMyAzOC40LTg1LjMzMzMzMyA4NS4zMzMzMzMtODUuMzMzMzMzaDI0My4yYzE0LjkzMzMzMyA1Ny42IDY2LjEzMzMzMyA5OC4xMzMzMzMgMTI4IDk4LjEzMzMzMyA3Mi41MzMzMzMgMCAxMzIuMjY2NjY3LTU5LjczMzMzMyAxMzIuMjY2NjY3LTEzMi4yNjY2NjdDMTAyNCA1OS43MzMzMzMgOTY0LjI2NjY2NyAwIDg5MS43MzMzMzMgMGMtNjEuODY2NjY3IDAtMTEzLjA2NjY2NyA0Mi42NjY2NjctMTI4IDk4LjEzMzMzM0g1MTguNGMtODUuMzMzMzMzIDAtMTUzLjYgNjguMjY2NjY3LTE1My42IDE1MS40NjY2Njd2NDYuOTMzMzMzSDM0LjEzMzMzM2MtOC41MzMzMzMgMC0xNy4wNjY2NjcgNC4yNjY2NjctMjMuNDY2NjY2IDEwLjY2NjY2N3MtMTAuNjY2NjY3IDEyLjgtMTAuNjY2NjY3IDIxLjMzMzMzM2MwIDE5LjIgMTQuOTMzMzMzIDMyIDM0LjEzMzMzMyAzMmgzMzIuOGMtNC4yNjY2NjcgNDQuOC00Mi42NjY2NjcgNzguOTMzMzMzLTg3LjQ2NjY2NiA3OC45MzMzMzRNMzQuMTMzMzMzIDY2My40NjY2NjdoNDIwLjI2NjY2N2MxNC45MzMzMzMgMzYuMjY2NjY3IDUxLjIgNjQgOTMuODY2NjY3IDY0IDU1LjQ2NjY2NyAwIDEwMC4yNjY2NjctNDQuOCAxMDAuMjY2NjY2LTk4LjEzMzMzNHMtNDQuOC05OC4xMzMzMzMtMTAwLjI2NjY2Ni05OC4xMzMzMzNjLTQ0LjggMC04MS4wNjY2NjcgMjcuNzMzMzMzLTkzLjg2NjY2NyA2OC4yNjY2NjdIMzQuMTMzMzMzYy04LjUzMzMzMyAwLTE3LjA2NjY2NyA0LjI2NjY2Ny0yMy40NjY2NjYgMTAuNjY2NjY2cy0xMC42NjY2NjcgMTAuNjY2NjY3LTEwLjY2NjY2NyAxOS4yYzAgMTkuMiAxNC45MzMzMzMgMzQuMTMzMzMzIDM0LjEzMzMzMyAzNC4xMzMzMzRtODU3LjYgMjk0LjRjLTM2LjI2NjY2NyAwLTY2LjEzMzMzMy0yOS44NjY2NjctNjYuMTMzMzMzLTY2LjEzMzMzNCAwLTM2LjI2NjY2NyAyOS44NjY2NjctNjYuMTMzMzMzIDY2LjEzMzMzMy02Ni4xMzMzMzNzNjYuMTMzMzMzIDI5Ljg2NjY2NyA2Ni4xMzMzMzQgNjYuMTMzMzMzYzAgMzYuMjY2NjY3LTI5Ljg2NjY2NyA2Ni4xMzMzMzMtNjYuMTMzMzM0IDY2LjEzMzMzNG0wLTE5Ni4yNjY2NjdjLTYxLjg2NjY2NyAwLTExMy4wNjY2NjcgNDIuNjY2NjY3LTEyOCA5OC4xMzMzMzNoLTcyLjUzMzMzM2MtNDQuOCAwLTg5LjYtMTAuNjY2NjY3LTEzMC4xMzMzMzMtMjkuODY2NjY2TDQ0OCA3NzYuNTMzMzMzYy00OS4wNjY2NjctMjMuNDY2NjY3LTEwNC41MzMzMzMtMzYuMjY2NjY3LTE1Ny44NjY2NjctMzYuMjY2NjY2aC0yNTZjLTguNTMzMzMzIDAtMTcuMDY2NjY3IDQuMjY2NjY3LTIzLjQ2NjY2NiAxMC42NjY2NjYtNi40IDYuNC0xMC42NjY2NjcgMTQuOTMzMzMzLTEwLjY2NjY2NyAyMy40NjY2NjcgMCAxOS4yIDE0LjkzMzMzMyAzMiAzNC4xMzMzMzMgMzJoMjU2YzQ0LjggMCA4OS42IDEwLjY2NjY2NyAxMzAuMTMzMzM0IDI5Ljg2NjY2N2wxMTAuOTMzMzMzIDUzLjMzMzMzM2M0OS4wNjY2NjcgMjMuNDY2NjY3IDEwNC41MzMzMzMgMzYuMjY2NjY3IDE1Ny44NjY2NjcgMzYuMjY2NjY3aDcyLjUzMzMzM2MxNC45MzMzMzMgNTcuNiA2Ni4xMzMzMzMgOTguMTMzMzMzIDEyOCA5OC4xMzMzMzMgNzIuNTMzMzMzIDAgMTMyLjI2NjY2Ny01OS43MzMzMzMgMTMyLjI2NjY2Ny0xMzIuMjY2NjY3IDIuMTMzMzMzLTcyLjUzMzMzMy01Ny42LTEzMC4xMzMzMzMtMTMwLjEzMzMzNC0xMzAuMTMzMzMzIiBmaWxsPSIjRkY2QTAwIiBwLWlkPSIxODc1NCI+PC9wYXRoPjwvc3ZnPg==;verticalAlign=top;labelPosition=center;verticalLabelPosition=bottom;align=center;" parent="1" vertex="1">
          <mxGeometry x="555" y="1263" width="60" height="60" as="geometry" />
        </mxCell>
        <mxCell id="hd7GLlxzBQkCQPeTxtlU-66" style="edgeStyle=orthogonalEdgeStyle;rounded=0;orthogonalLoop=1;jettySize=auto;html=1;" parent="1" source="hd7GLlxzBQkCQPeTxtlU-12" edge="1">
          <mxGeometry relative="1" as="geometry">
            <mxPoint x="550" y="1293" as="targetPoint" />
          </mxGeometry>
        </mxCell>
        <mxCell id="hd7GLlxzBQkCQPeTxtlU-12" value="Kafka" style="shape=image;aspect=fixed;image=data:image/svg+xml,PD94bWwgdmVyc2lvbj0iMS4wIiBzdGFuZGFsb25lPSJubyI/PjwhRE9DVFlQRSBzdmcgUFVCTElDICItLy9XM0MvL0RURCBTVkcgMS4xLy9FTiIgImh0dHA6Ly93d3cudzMub3JnL0dyYXBoaWNzL1NWRy8xLjEvRFREL3N2ZzExLmR0ZCI+PHN2ZyB0PSIxNjkyNjA4NzU2MzEyIiBjbGFzcz0iaWNvbiIgdmlld0JveD0iMCAwIDEwMjQgMTAyNCIgdmVyc2lvbj0iMS4xIiB4bWxucz0iaHR0cDovL3d3dy53My5vcmcvMjAwMC9zdmciIHAtaWQ9IjcxNzMiIHhtbG5zOnhsaW5rPSJodHRwOi8vd3d3LnczLm9yZy8xOTk5L3hsaW5rIiB3aWR0aD0iMjAwIiBoZWlnaHQ9IjIwMCI+PHBhdGggZD0iTTU1OS4xMDQgNDM5LjI5NmMwIDU1LjI5NiAzOC40IDEwMC4zNTIgODcuNTUyIDExNS4ydjQwLjQ0OGMtMjcuNjQ4IDYuNjU2LTQ5LjE1MiAzNC4zMDQtNDkuMTUyIDY0IDAgMzYuMzUyIDI5LjY5NiA2Ni4wNDggNjYuMDQ4IDY2LjA0OCAzNi4zNTIgMCA2Ni4wNDgtMjkuNjk2IDY2LjA0OC02Ni4wNDggMC0yOS42OTYtMTkuNDU2LTU1LjI5Ni00Ny4xMDQtNjR2LTQyLjQ5NmMzOC40LTIuMDQ4IDcwLjY1Ni0yMS41MDQgOTEuNjQ4LTQ5LjE1Mmw3NC43NTIgNDIuNDk2YzAgMi4wNDgtMi4wNDggNC4wOTYtMi4wNDggNi4xNDQgMCAzNi4zNTIgMjkuNjk2IDY2LjA0OCA2Ni4wNDggNjYuMDQ4czY2LjA0OC0yOS42OTYgNjYuMDQ4LTY2LjA0OGMtMi4wNDgtMzYuMzUyLTI5LjY5Ni02NC02Ni4wNDgtNjQtMjEuNTA0IDAtMzguNCAxMC43NTItNTMuMjQ4IDI1LjZMNzg2Ljk0NCA0NzEuMDRjNC4wOTYtMTIuOCA2LjE0NC0yMy41NTIgNi4xNDQtMzYuMzUyIDAtMTkuNDU2LTQuMDk2LTM2LjM1Mi0xMi44LTQ5LjE1Mmw4Mi45NDQtNDcuMTA0YzEyLjggMTIuOCAyOS42OTYgMTkuNDU2IDQ3LjEwNCAxOS40NTYgMzYuMzUyIDAgNjYuMDQ4LTI5LjY5NiA2Ni4wNDgtNjYuMDQ4cy0yOS42OTYtNjYuMDQ4LTY2LjA0OC02Ni4wNDhTODQ0LjggMjU2IDg0NC44IDI5Mi4zNTJjMCA0LjA5NiAyLjA0OCAxMC43NTIgMi4wNDggMTQuODQ4bC04NS41MDQgNDkuMTUyYy0yMS41MDQtMjEuNTA0LTQ5LjE1Mi0zNi4zNTItODAuODk2LTM4LjR2LTQyLjQ5NmMyNy42NDgtOC43MDQgNDcuMTA0LTM0LjMwNCA0Ny4xMDQtNjQgMC0zNi4zNTItMjkuNjk2LTY2LjA0OC02Ni4wNDgtNjYuMDQ4LTM2LjM1MiAwLTY0IDI5LjY5Ni02NCA2OC4wOTYgMCAyOS42OTYgMjEuNTA0IDU1LjI5NiA0OS4xNTIgNjR2NDcuMTA0Yy00OS4xNTIgMTIuMjg4LTg3LjU1MiA1OS4zOTItODcuNTUyIDExNC42ODh6IiBmaWxsPSIjRkY2QTAwIiBwLWlkPSI3MTc0Ij48L3BhdGg+PHBhdGggZD0iTTkxOS41NTIgNjYzLjU1MmMtNi4xNDQgNzAuNjU2LTYxLjk1MiAxMjMuOTA0LTEzMi4wOTYgMTIzLjkwNEgyMjguMzUyYy03Mi43MDQgMC0xMzIuMDk2LTU5LjkwNC0xMzIuMDk2LTEzMi4wOTYgMC02Ni4wNDggNDcuMTA0LTEyMS4zNDQgMTExLjEwNC0xMzIuMDk2bDI3LjY0OC00LjA5NlY0ODYuNGMwLTExOS4yOTYgOTguMzA0LTIxNS41NTIgMjE1LjU1Mi0yMTUuNTUyIDI3LjY0OCAwIDUzLjI0OCA0LjA5NiA3Ni44IDE0Ljg0OCAxMC43NTItMTkuNDU2IDIzLjU1Mi0zOC40IDM2LjM1Mi01Ny4zNDRDNTI3LjM2IDIxMy41MDQgNDg4Ljk2IDIwNC44IDQ0OC41MTIgMjA0LjhjLTE0Ny40NTYgMC0yNzAuODQ4IDExNS4yLTI4My42NDggMjYyLjE0NC04Mi45NDQgMjUuNi0xNDAuOCAxMDQuNDQ4LTE0MC44IDE5MiAwIDExMS4xMDQgODkuNiAyMDIuNzUyIDIwMi43NTIgMjAyLjc1Mmg1NTkuMTA0YzExMS4xMDQgMCAyMDAuNzA0LTg5LjYgMjAyLjc1Mi0yMDAuNzA0IDAtMi4wNDggMC00LjA5NiAyLjA0OC02LjE0NGwtNzEuMTY4IDguNzA0eiIgZmlsbD0iI0ZGNkEwMCIgcC1pZD0iNzE3NSI+PC9wYXRoPjwvc3ZnPg==;verticalAlign=top;labelPosition=center;verticalLabelPosition=bottom;align=center;" parent="1" vertex="1">
          <mxGeometry x="370" y="1263" width="60" height="60" as="geometry" />
        </mxCell>
        <mxCell id="ktznt2PxbKB9N3ZApqK0-1" value="BI工具" style="shape=image;aspect=fixed;image=data:image/svg+xml,PD94bWwgdmVyc2lvbj0iMS4wIiBzdGFuZGFsb25lPSJubyI/PjwhRE9DVFlQRSBzdmcgUFVCTElDICItLy9XM0MvL0RURCBTVkcgMS4xLy9FTiIgImh0dHA6Ly93d3cudzMub3JnL0dyYXBoaWNzL1NWRy8xLjEvRFREL3N2ZzExLmR0ZCI+PHN2ZyB0PSIxNjkyODQwNjc5Nzk1IiBjbGFzcz0iaWNvbiIgdmlld0JveD0iMCAwIDEwMjQgMTAyNCIgdmVyc2lvbj0iMS4xIiB4bWxucz0iaHR0cDovL3d3dy53My5vcmcvMjAwMC9zdmciIHAtaWQ9IjU1NzczIiB4bWxuczp4bGluaz0iaHR0cDovL3d3dy53My5vcmcvMTk5OS94bGluayIgd2lkdGg9IjIwMCIgaGVpZ2h0PSIyMDAiPjxwYXRoIGQ9Ik00MjYuNjY2NjY3IDU1NC42NjY2NjdIMTcwLjY2NjY2N2MtMjMuNDY2NjY3IDAtNDIuNjY2NjY3LTE5LjItNDIuNjY2NjY3LTQyLjY2NjY2N1YxNzAuNjY2NjY3YzAtMjMuNDY2NjY3IDE5LjItNDIuNjY2NjY3IDQyLjY2NjY2Ny00Mi42NjY2NjdoMjU2YzIzLjQ2NjY2NyAwIDQyLjY2NjY2NyAxOS4yIDQyLjY2NjY2NiA0Mi42NjY2Njd2MzQxLjMzMzMzM2MwIDIzLjQ2NjY2Ny0xOS4yIDQyLjY2NjY2Ny00Mi42NjY2NjYgNDIuNjY2NjY3ek04NTMuMzMzMzMzIDg5Nkg1OTcuMzMzMzMzYy0yMy40NjY2NjcgMC00Mi42NjY2NjctMTkuMi00Mi42NjY2NjYtNDIuNjY2NjY3VjUxMmMwLTIzLjQ2NjY2NyAxOS4yLTQyLjY2NjY2NyA0Mi42NjY2NjYtNDIuNjY2NjY3aDI1NmMyMy40NjY2NjcgMCA0Mi42NjY2NjcgMTkuMiA0Mi42NjY2NjcgNDIuNjY2NjY3djM0MS4zMzMzMzNjMCAyMy40NjY2NjctMTkuMiA0Mi42NjY2NjctNDIuNjY2NjY3IDQyLjY2NjY2N3oiIGZpbGw9IiNmZjZhMDAiIHAtaWQ9IjU1Nzc0Ij48L3BhdGg+PHBhdGggZD0iTTg1My4zMzMzMzMgMzg0SDU5Ny4zMzMzMzNjLTIzLjQ2NjY2NyAwLTQyLjY2NjY2Ny0xOS4yLTQyLjY2NjY2Ni00Mi42NjY2NjdWMTcwLjY2NjY2N2MwLTIzLjQ2NjY2NyAxOS4yLTQyLjY2NjY2NyA0Mi42NjY2NjYtNDIuNjY2NjY3aDI1NmMyMy40NjY2NjcgMCA0Mi42NjY2NjcgMTkuMiA0Mi42NjY2NjcgNDIuNjY2NjY3djE3MC42NjY2NjZjMCAyMy40NjY2NjctMTkuMiA0Mi42NjY2NjctNDIuNjY2NjY3IDQyLjY2NjY2N3pNNDI2LjY2NjY2NyA4OTZIMTcwLjY2NjY2N2MtMjMuNDY2NjY3IDAtNDIuNjY2NjY3LTE5LjItNDIuNjY2NjY3LTQyLjY2NjY2N3YtMTcwLjY2NjY2NmMwLTIzLjQ2NjY2NyAxOS4yLTQyLjY2NjY2NyA0Mi42NjY2NjctNDIuNjY2NjY3aDI1NmMyMy40NjY2NjcgMCA0Mi42NjY2NjcgMTkuMiA0Mi42NjY2NjYgNDIuNjY2NjY3djE3MC42NjY2NjZjMCAyMy40NjY2NjctMTkuMiA0Mi42NjY2NjctNDIuNjY2NjY2IDQyLjY2NjY2N3oiIGZpbGw9IiNmZjZhMDAiIHAtaWQ9IjU1Nzc1Ij48L3BhdGg+PC9zdmc+;verticalAlign=top;labelPosition=center;verticalLabelPosition=bottom;align=center;" vertex="1" parent="1">
          <mxGeometry x="943" y="1093" width="60" height="60" as="geometry" />
        </mxCell>
      </root>
    </mxGraphModel>
  </diagram>
</mxfile>
